<svg xmlns="http://www.w3.org/2000/svg" xmlns:ns1="http://www.w3.org/1999/xlink" fill="none" viewBox="0 0 1600 1300" width="1600" height="1300"><defs><clipPath id="assetClipPath_OAyC4kug"><path d="m0 0 h 641.255 v 159.118 h -641.255 v -159.118 z" id="path_bFlNUZ_S" fill="#ffffff" /></clipPath><clipPath id="assetClipPath_NAySxVLm"><path d="m0 0 h 425.828 v 532.943 h -425.828 v -532.943 z" id="path_BluBR56B" fill="#ffffff" /></clipPath><clipPath id="assetClipPath_JTA7kw3C"><path d="m0 0 h 300.819 v 224.693 h -300.819 v -224.693 z" id="path_sDKPi0kY" fill="#ffffff" /></clipPath><clipPath id="assetClipPath_YGtqfqp6"><path d="m0 0 h 198.417 v 198.418 h -198.417 v -198.418 z" id="path_YoeVxlyn" fill="#ffffff" /></clipPath><clipPath id="assetClipPath_qI2pziQv"><path d="m0 0 h 340.738 v 384.34 h -340.738 v -384.34 z" id="path_L1JSeVuS" fill="#ffffff" /></clipPath><clipPath id="assetClipPath_7uRJFbDG"><path d="m0 0 h 377.946 v 377.946 h -377.946 v -377.946 z" id="path_Sm_dmKbS" fill="#ffffff" /></clipPath><clipPath id="assetClipPath_xkkAcp5-"><path d="m0 0 h 608.723 v 429.747 h -608.723 v -429.747 z" id="path_JvcXCPFa" fill="#ffffff" /></clipPath><clipPath id="assetClipPath_Ih72A0FU"><path d="m0 0 h 459.275 v 459.275 h -459.275 v -459.275 z" id="path_fOdttLSD" fill="#ffffff" /></clipPath><clipPath id="assetClipPath_BfxKIiHG"><path d="m0 0 h 712.017 v 686.031 h -712.017 v -686.031 z" id="path_1bwXwbvI" fill="#ffffff" /></clipPath><clipPath id="assetClipPath_w_OmemFA"><path d="m0 0 h 94 v 94 h -94 v -94 z" id="path_kEGJ1Ovk" fill="#ffffff" /></clipPath><clipPath id="assetClipPath_WC2kdjv_"><path d="m0 0 h 488.447 v 282.63 h -488.447 v -282.63 z" id="path_VSz5_eZq" fill="#ffffff" /></clipPath><clipPath id="assetClipPath_vNU2DOHa"><path d="m0 0 h 200.296 v 200.296 h -200.296 v -200.296 z" id="path_mU3XliiJ" fill="#ffffff" /></clipPath><clipPath id="clipPath_r7K6xHJM"><circle cx="40" cy="40" r="40" stroke="#E0A500" style="stroke-width:0;vector-effect:non-scaling-stroke;" /></clipPath></defs><g transform="translate(295 813) rotate(-45.65167292410256 321 79.5)" data-asset-index="0"><g clip-path="url(#assetClipPath_OAyC4kug)" transform="scale(1.0011617843135725 0.9992584119961286)" data-asset-index="0"><rect x="0" y="0" width="641.255" height="159.117" rx="79.559" ry="79.559" fill="#5AE8EC" id="pFsfc8IQO4yl78zFAc9mM" /><g id="qocyBg9IJJn39XuMnULxb">
    <polygon points="151.229 78.746 146.465 60.653 115.661 68.764 115.661 36.91 96.952 36.91 96.952 68.764 66.148 60.653 61.384 78.746 90.872 86.51 73.25 111.396 88.519 122.208 106.307 97.087 124.095 122.208 139.363 111.396 121.741 86.51 151.229 78.746" fill="#3A35A3" id="FaUWjYw9XVgUJKobEAgt" />
    <polygon points="258.39 78.746 253.625 60.653 222.822 68.764 222.822 36.91 204.112 36.91 204.112 68.764 173.308 60.653 168.544 78.746 198.032 86.51 180.41 111.396 195.679 122.208 213.467 97.088 231.255 122.208 246.524 111.396 228.902 86.51 258.39 78.746" fill="#3A35A3" id="KgKtKzvd7Bx4wGqnQl3" />
    <polygon points="365.55 78.746 360.786 60.653 329.982 68.764 329.982 36.91 311.273 36.91 311.273 68.764 280.469 60.653 275.705 78.746 305.193 86.51 287.57 111.396 302.839 122.208 320.627 97.088 338.415 122.208 353.684 111.396 336.062 86.51 365.55 78.746" fill="#3A35A3" id="iAKlaxC1wQul3cbSQ5Om7" />
    <polygon points="472.71 78.746 467.946 60.653 437.142 68.764 437.142 36.91 418.433 36.91 418.433 68.764 387.629 60.653 382.865 78.746 412.353 86.51 394.731 111.396 410 122.208 427.788 97.088 445.576 122.208 460.844 111.396 443.222 86.51 472.71 78.746" fill="#3A35A3" id="k27XtQafdowtXLzyQZ6m2" />
    <polygon points="579.871 78.746 575.106 60.653 544.303 68.764 544.303 36.91 525.593 36.91 525.593 68.764 494.789 60.653 490.025 78.746 519.513 86.51 501.891 111.396 517.16 122.208 534.948 97.088 552.736 122.208 568.005 111.396 550.383 86.51 579.871 78.746" fill="#3A35A3" id="atTAK8iQWhXlgVnaCWlG3" />
  </g></g></g><g transform="translate(384 748) rotate(50.860173314581594 -146 183) scale(-1 1)" data-asset-index="1"><g clip-path="url(#assetClipPath_NAySxVLm)" transform="scale(0.6857228740242539 0.6867526170716193)" data-asset-index="1"><path d="M365.513,532.943H60.315c-33.311,0-60.315-27.004-60.315-60.315V60.315C0,27.004,27.004,0,60.315,0h228.268s137.245,137.245,137.245,137.245v335.383c0,33.311-27.004,60.315-60.315,60.315Z" fill="#FFC523" id="RlomaWf26PVmEMZ1Bjb" /><path d="M348.898,137.245h76.93S288.583,0,288.583,0v76.93c0,33.311,27.004,60.315,60.315,60.315Z" fill="#CF9B19" id="mLuz58F9UUls_40WdF7za" /></g></g><g transform="translate(805 508) rotate(6.229504815529781 98.5 73.5)" data-asset-index="2"><g clip-path="url(#assetClipPath_JTA7kw3C)" transform="scale(0.6548788474132285 0.6542259883485466)" data-asset-index="2"><path d="M280.221,224.693H20.597c-11.376,0-20.597-9.222-20.597-20.597V23.204C0,10.389,10.389,0,23.204,0h68.03c5.641,0,11.036,2.314,14.924,6.401l11.764,12.368c3.888,4.088,9.283,6.401,14.924,6.401h147.375c11.376,0,20.597,9.222,20.597,20.597v158.328c0,11.376-9.222,20.597-20.597,20.597Z" fill="#FF6C96" id="pjy9gJcdKSrIqHBvh6x3" /></g></g><g transform="translate(1004 386) rotate(-4.803859552745261 141.5 141.5)" data-asset-index="3"><g clip-path="url(#assetClipPath_YGtqfqp6)" transform="scale(1.4262890780527877 1.426281889747906)" data-asset-index="3"><path d="M178.705,79.497h-31.907s22.562-22.561,22.562-22.561c7.698-7.698,7.698-20.179,0-27.877h0c-7.698-7.698-20.179-7.698-27.877,0l-22.562,22.562v-31.907c0-10.887-8.825-19.712-19.712-19.712-10.887,0-19.712,8.826-19.712,19.712v31.907s-22.562-22.562-22.562-22.562c-7.698-7.698-20.179-7.698-27.877,0h0c-7.698,7.698-7.698,20.179,0,27.877l22.562,22.561h-31.907c-10.887,0-19.712,8.826-19.712,19.712h0c0,10.887,8.825,19.712,19.712,19.712h31.907s-22.562,22.562-22.562,22.562c-7.698,7.698-7.698,20.179,0,27.877h0c7.698,7.698,20.179,7.698,27.877,0l22.562-22.562v31.907c0,10.887,8.825,19.712,19.712,19.712,10.887,0,19.712-8.826,19.712-19.712v-31.907s22.562,22.562,22.562,22.562c7.698,7.698,20.179,7.698,27.877,0h0c7.698-7.698,7.698-20.179,0-27.877l-22.562-22.562h31.907c10.887,0,19.712-8.826,19.712-19.712h0c0-10.887-8.825-19.712-19.712-19.712Z" fill="#FFC523" id="iWrhPtQD8KNE2V9taTr9X" /></g></g><g transform="translate(1564 828) rotate(8.743864917864052 -135.5 153) scale(-1 1)" data-asset-index="4"><g clip-path="url(#assetClipPath_qI2pziQv)" transform="scale(0.7953324841960685 0.7961700577613572)" data-asset-index="4"><path d="M328.338,301.5l12.333-245.781c.871-17.362-6.818-34.051-20.582-44.669-13.765-10.618-31.856-13.822-48.43-8.573L37.053,76.778C9.117,85.626-6.357,115.445,2.491,143.381c8.848,27.936,38.667,43.411,66.603,34.563l73.081-23.146L31.026,298.869c-17.899,23.201-13.602,56.52,9.6,74.42,8.456,6.523,18.253,10.097,28.16,10.884,17.277,1.372,34.884-5.738,46.261-20.484l111.149-144.071-3.842,76.563c-1.442,28.742,20.264,53.287,48.763,55.55.52.041,1.045.075,1.57.101,29.267,1.468,54.183-21.066,55.651-50.333Z" fill="#5AFFB1" id="FJUX8n9Q5GslvQl7akQne" /></g></g><g transform="translate(811 651) rotate(28.25216604584928 247 247)" data-asset-index="5"><g clip-path="url(#assetClipPath_7uRJFbDG)" transform="scale(1.3070650304540858 1.3070650304540858)" data-asset-index="5"><circle cx="188.973" cy="188.973" r="188.973" fill="#9B8DEC" id="LaucrYmY8zDaw3qi6BdKB" /><path d="M328.271,316.661l-88.27-23.154s-4.806-19.619-1.939-41.534c5.364,3.273,12.929,6.178,15.529-1.271,5.287-15.147,14.856-3.51,26.436-17.364,10.379-12.417-9.998-19.847,7.776-34.236,17.774-14.389,1.655-11.261,4.45-49.18,3.177-43.086-19.188-76.426-57.308-86.324-25.069-6.51-11.479,11.382-37.717,2.446-26.239-8.936-39.791,3.837-58.758,12.43-6.05,2.741-13.123-1.113-7.262-11.958-14.803,3.896-30.139,29.997-12.073,41.566-6.557,10.284-10.372,22.487-10.372,35.587v16.789l-24.468,34.359c-3.522,4.946.014,11.805,6.086,11.805h12.523v41.883c0,6.189,5.018,11.207,11.207,11.207h28.871c0,14.662.912,25.273-6.677,34.224l-86.631,22.724c34.545,37.666,84.161,61.285,139.298,61.285s104.753-23.619,139.298-61.285Z" fill="#3A359A" id="GiutJUW1_lQ3FUUqlniJk" /></g></g><g transform="translate(1215 619) rotate(-140.71035508018122 136 96.5)" data-asset-index="6"><g clip-path="url(#assetClipPath_xkkAcp5-)" transform="scale(0.4468370671060565 0.44910144806130115)" data-asset-index="6"><defs>
    <linearGradient id="linearGradient_rnXlOlw0" x1="101.272" y1="161.677" x2="701.555" y2="316.853" gradientUnits="userSpaceOnUse">
      <stop offset="0" stop-color="#FF6D89" />
      <stop offset="1" stop-color="#FFFFFF" />
    </linearGradient>
    <linearGradient id="linearGradient_98h_8v1l" x1="-36.365" y1="331.481" x2="705.374" y2="52.238" ns1:href="#linearGradient_rnXlOlw0" />
  </defs><path d="M279.058,411.584c-16.065-2.718-31.634-8.777-45.73-18.74-46.421-32.181-57.569-92.179-42.511-143.175,5.153-18.379,12.542-34.721,21.74-50.939,15.507-27.439,33.653-52.808,55.875-75.696C401.573-15.176,596.978,44.659,608.227,241.721c1.609,28.326-.8,57.133-5.786,84.649-9.973,45.293-75.03,34.44-69.901-11.511,6.113-42.883,5.246-89.263-13.632-128.483-10.978-22.651-28.347-41.372-51.162-50.576-22.403-9.132-47.333-7.977-70.366.45-45.734,17.059-79.681,57.099-103.177,100.46-1.522,2.813-3.087,5.857-4.54,8.715-6.8,13.249-12.463,30.93-12.474,43.51-.277,12.198,3.285,25.638,16.351,27.438" fill="url(#linearGradient_rnXlOlw0)" id="F7M0iSqqEIkKJO-Tut3Y" /><path d="M293.54,316.374c15.836,2.029,33.421-9.652,45.862-23.062,22.549-24.254,36.555-58.178,45.443-90.716,6.876-26.04,11.801-62.124-14.418-78.527-44.021-25.637-113.336-3.505-153.097,24.524-44.045,30.15-74.498,75.998-85.025,128.243-5.402,25.985-6.125,53.556-2.994,81.57,3.938,35.234-21.432,66.989-56.666,70.927-36.104,4.123-68.621-22.946-71.159-59.185h0C-11.862,219.914,65.284,78.657,207.768,21.929c71.509-28.171,158.434-34.123,225.15,11.798,43.956,30.626,65.981,81.862,63.645,134.565-.804,22.298-4.958,42.89-11.412,63.81-18.452,58.58-48.729,116.598-100.854,153.214-30.068,21.483-68.919,32.413-105.239,26.268" fill="url(#linearGradient_98h_8v1l)" id="FSgncxOKTahZcFgIzPB5K" /></g></g><g transform="translate(127 500) rotate(-21.61630451318311 133.5 133.5)" data-asset-index="7"><g clip-path="url(#assetClipPath_Ih72A0FU)" transform="scale(0.5813510424037887 0.5813510424037887)" data-asset-index="7"><circle cx="229.637" cy="229.637" r="229.637" fill="#5AE0E4" id="h3QXQ5ddi6GcvjrwuQYKm" /><path d="M393.997,389.986l-103.844-27.24c-8.719-10.285-7.672-22.477-7.672-39.324h33.173c7.112,0,12.877-5.765,12.877-12.877v-48.123h14.389c6.977,0,11.04-7.881,6.993-13.564l-28.114-39.479v-19.291c0-14.814-4.242-28.63-11.557-40.328,10.29-14.183,3.325-44.766-45.002-54.49-45.12-9.077-100.706-10.208-136.767,29.355-38.288,42.005-26.24,119.691-52.073,161.962-31.567,51.655,4.028,67.843-14.246,100.136,41.894,44.65,101.427,72.552,167.485,72.552,64.433,0,122.656-26.548,164.36-69.289Z" fill="#3A359A" id="F7MSvaqpNYx7EY7YE9eRO" /></g></g><g transform="translate(923 244) rotate(-95.54509951668976 -309 297.5) scale(-1 1)" data-asset-index="8"><g clip-path="url(#assetClipPath_BfxKIiHG)" transform="scale(0.8679568044021421 0.867307745568349)" data-asset-index="8"><path d="M153.318,0c82.834,118.184,167.693,173.651,257.261,83.155-25.885,172.374,105.775,185.997,301.438,135.127-171.882,71.049-319.072,149.88-220.881,267.656-116.153-9.322-146.262,60.21-210.487,200.092-2.714-190.686-45.279-289.436-257.262-228.677C97.346,379.533,82.867,297.815,0,213.085,137.127,218.97,197.904,156.588,153.318,0Z" fill="#9B8DEC" id="vbI1C65lbhca83uq4Fyto" /><path d="M359.249,435.559c.001.345-.053.66-.192.923l.192-.923ZM349.228,350.66c.149.637.447.871.689.871-.253-.575-.48-1.045-.689-.871ZM350.164,335.807c-.041.322-.043.588-.063.877.198-.358.287-.703.063-.877ZM359.249,435.559l.518-2.374c-.877-.042-.478,1.246-.518,2.374ZM366.428,472.611c-.069.807.533.909,1.241,1.115l-1.241-1.115ZM367.452,500.511c1.773.446,1.491,1.823,3.256.702.009-.661-2.249-.585-3.256-.702ZM364.135,452.035c.324-.093.601-.235.76-.369-.278.038-.53.176-.76.369ZM163.065,426.562c-.14-.081-.246-.089-.372-.147.147.241.276.348.372.147ZM339.847,248.153c-.376.178-.641.461-.891.754.225-.052.487-.23.891-.754ZM342.823,294.012l.146-1.164c-.143.473-.163.844-.146,1.164ZM333.623,224.473c.082-.33.124-.619-.156-1.161-.526.372.306.557.156,1.161ZM333.623,224.473c-.038.154-.084.315-.112.517.069-.197.102-.366.112-.517ZM330.175,200.439c-.458.365-.353.784-.162,1.276l.162-1.276ZM190.165,356.304c-.79.267-1.563.32-2.301.307,1.625.242.795,3.832,2.301-.307ZM315.795,226.37l-.199-3.945c-.07,1.12.01,2.553.199,3.945ZM256.209,191.287l-.087.939c.177-.304.237-.625.087-.939ZM314.308,208.113l-.607,2.78c.601-.874,1.938-2.393.607-2.78ZM311.398,193.046c-.082-.192-.17-.365-.277-.492.07.136.168.32.277.492ZM341.694,292.774c-.295-.23-.493-.483-.642-.747.325.519.395,1.327.642.747ZM261.723,179.881c.006.281.031.61.083,1.01-.045-.332-.064-.674-.083-1.01ZM193.899,304.193c.759-.305.765-.575.229-1.102-.068.201-.138.409-.202.595-.016.175.036.296-.027.507ZM359.057,436.482c-.072.14-.141.269-.273.366.131-.155.276-.156.273-.366ZM254.178,199.308l-.532-.203.221.782.311-.58ZM356.315,478.463c.144-.043.314-.298.499-.605-.185.103-.368.281-.499.605ZM358.663,495.283l-.461,2.562c.307-1.123.417-1.926.461-2.562ZM360.365,508.881l-1.001-.104c.41.092.763.178,1.001.104ZM341.786,359.388c-.495-.615-.981-1.222-1.327-1.888-.018,1.147.055,2.026,1.327,1.888ZM315.814,226.803c.015.005.019-.003.04.002-.028-.15-.038-.284-.059-.435l.019.433ZM340.101,354.559c-.293,1.184-.07,2.111.358,2.941.024-.942.106-2.058-.358-2.941ZM370.815,519.852l-.036,4.586c.582-.697,1.32-1.56,1.85-.989.285-.286.573-.565.859-.848.437-2.482-2.282,2.39-2.673-2.749ZM370.176,505.734c.727,2.363,1.246-.197,1.75-.135-.992-1.427-1.241-1.771-1.75.135ZM356.547,404.929l2.059-.031c-.542-1.824-.788.089-2.059.031ZM332.736,204.54l-2.422.901c.619,1.199,3.461,1.083,2.422-.901ZM320.304,131.798c.981-.829,1.498-2.542.737-3.707-.161.002-.322.009-.483.01-.087,1.498-.643,2.988-.255,3.697ZM242.497,171.925l-.391,2.856c.629-.667.624-2.035.391-2.856ZM484.744,247.739l.5-.055c-.198-.047-.362-.02-.5.055ZM456.991,273.407c.159-.247.058-.519-.102-.699-.066.312-.107.581.102.699ZM450.365,275.9c.157-.038.266-.094.396-.141-.275-.07-.474-.063-.396.141ZM484.744,247.739l-1.302.125c.56.661.819.088,1.302-.125ZM488.194,240.573c-.251-.221-.491-.396-.649-.485.198.199.42.356.649.485ZM439.979,282.203c.034.002.04-.004.068-.006.039-.401-.054-.245-.068.006ZM367.783,363.465c-.744-.502-1.291-3.669-3.296-3.512,2.289.554.411,3.238,3.296,3.512ZM438.288,290.325l-.567.141c.285.004.449-.06.567-.141ZM409.378,319.654l-.623.153c.322.166.515.238.623-.153ZM270.016,480.854c-.617-.278-1.215-.666-1.785-1.072,1.248,1.011.513,2.551,1.785,1.072ZM428.714,324.925l-1.465.995c.499-.189,1.026-.556,1.465-.995ZM325.366,425.115l-.092.473c.145-.073.199-.218.092-.473ZM423.831,329.803c-.78-.342-1.339-.435-1.792-.407-.039.854,1.338.395,1.792.407ZM441.131,282.342c.109-.14.181-.298.166-.45-.105.16-.149.308-.166.45ZM274.271,454.009c.215.067.405.115.575.141-.124-.213-.246-.425-.369-.627-.057.076-.121.148-.171.221-.017.088.02.183-.034.266ZM485.34,247.71c-.021-.009-.044-.018-.064-.027-.011.001-.02-.002-.032.001.032.007.064.017.096.026ZM323.586,428.461l-.405-.399.15.552.255-.153ZM449.211,300.681c-.048.065-.082.143-.091.234-.073.689.064.309.091-.234ZM465.422,277.063c.077.5.152.992.11,1.391.476-.233.783-.476-.11-1.391ZM428.877,324.818c-.007-.012-.014-.014-.025-.03-.042.053-.09.09-.137.137l.163-.107ZM464.578,279.352c.672-.036.9-.401.954-.898-.397.184-.902.363-.954.898ZM474.13,256.321l-1.368-1.523c-.381.794.555.567,1.368,1.523ZM475.525,269.878l1.47.328-1.053-1.599-.417,1.271ZM461.226,264.194c.121-.305.491-1.176.456-1.505l-.456,1.505ZM387.481,341.874c-1.142-.641-2.363-.566-1.888.709.641-.395,1.852-.217,1.888-.709ZM315.285,406.99l-.377,1.371c.674-.128.437-.903.377-1.371ZM486.621,317.548l.479.386c-.118-.192-.284-.313-.479-.386ZM486.621,317.548l-1.227-1.016c-.217.841.598.733,1.227,1.016ZM510.02,317.643l-.902.962c.611.229.626-.48.902-.962ZM496.956,315.559c-.04.278-.017.552.041.817.019-.334,0-.634-.041-.817ZM412.984,299.664c.027.03.038.031.064.053.45-.194.209-.183-.064-.053ZM267.463,285.341c-.104-.905,2.736-3.152.883-4.737,1.351,2.224-3.029,2.174-.883,4.737ZM376.549,295.807c.018.403.12.721.23,1.027.02-.23-.023-.522-.23-1.027ZM403.095,302.845l-.625-.394c.236.241.441.341.625.394ZM361.805,296.716c-.129-.234-.907-.271-.572.196.162-.202.345-.309.572-.196ZM361.805,296.716c.08.072.163.15.274.223-.099-.113-.189-.18-.274-.223ZM348.17,295.294l-.684-.433c.093.427.268.546.684.433ZM62.743,270.098c-.23-.672-.33-1.391-.387-2.096-.002,1.614-2.226,1.871.387,2.096ZM358.968,314.414l-2.271-.661c.617.31,1.444.542,2.271.661ZM167.471,284.788l-.57.191c.198.08.396.043.57-.191ZM349.77,313.095c-.301-.844-.675-1.363-1.085-1.726-.97.535.822,1.359,1.085,1.726ZM413.814,300.704c.26.014.492-.02.606-.115-.255.003-.445.05-.606.115ZM98.019,271.785c-.075-.002-.165-.004-.225-.005.048.013.13.011.225.005ZM267.633,479.429c.203.145.4.265.579.34-.159-.123-.353-.241-.579-.34ZM272.621,146.883c-.198-.008-.37.005-.52.036.172.108.344.059.52-.036ZM487.246,318.278c-.015-.089-.044-.158-.076-.221.026.074.042.141.076.221ZM339.223,409.387c.289.223.617.495,1.026.878-.364-.78-.707-.784-1.026-.878ZM155.685,440.998c-.233-.065-.48-.082-.728-.086.242.03.487.056.728.086ZM370.257,525.889c-2.513,2.635-4.98,5.395-7.406,8.28-1.988-5.205,1.187-18.247-2.765-13.269-.295.454-.598.549-1.058-.718,2.007.224,1.017-1.852,1.771-2.093-3.245-2.66.024-4.572-2.205-6.466.744.413,1.252-1.459,1.76-2.714,2.325.014.697-3.136,3.978-.049.17.212.352.392.55.528-.202-.199-.378-.366-.55-.528-2.4-2.989-2.189-12.735-6.145-9.046l.507-4.735-.03.203c.127-2.035-.548-2.259,1.58-5.263.742,1.07.975,2.722,1.722,3.791,1.782-2.735-2.468-4.842-2.957-7.532,4.981,4.41,2.524-.591.793-3.504l.996.123c1.549-5.071-5.002-1.221-2.216-5.159-.556.187-1.235-.175-1.767.12.846-1.438,2.163-4.709,3.784-1.863-1.549-4.679-1.823-4.565-4.749-1.508-.035-.318-3.47-10.766-.75-5.196,4.061-8.552-6.475-15.312-1.523-25.001-4.073,1.583-2.989-8.804-2.965-11.181l1.194.701c-1.379-5.372-7.797-16.974-2.55-15.148-2.433-3.064,3.31-7.908-1.018-8.253l-.163,1.272c-.047-1.658-.331-3.328-.751-5.005-.537.466-1.453,2.83-2.389,1.646,1.399,2.575-2.899.883-2.161,2.435-.641-.762-.698-1.285-1.306-1.777l-.352,1.631c-.132-1.069-1.746-3.22-2.775-2.618.132.543.269.862.412,1.06-1.941-1.205.157,2.559,2.204,2.505-2.286,1.478-4.676,9.04-6.727,5.425-.633,1.521-2.099,2.966-3.792,2.551.323.382.701,1.29,1.268,1.514.322,2.703-1.777-1.193-1.78.77-.017-.568-.021-1.098-.508-1.674l-1.15,4.096c-1.461-1.947-7.912.544-2.995,1.347l-.263,1.157-2.631-1.54.801,2.857-1.762-1.726c2.243,6.17-1.569,4.48-6.052,4.188,3.15,3.52-2.714,2.465-.737,5.272-4.68-.335-6.311,4.333-9.88,6.46-2.662-2.38.842,3.774-.906,4.025-2.158-3.09-5.462,4.132-5.158,6.673-.171-.825-1.406-1.731-1.807-1.099.216,1.089,2.758,1.913,1.221,2.189-2.001-2.703-.699.831-.461,1.639-4.509-.354-8.642,8.265-10.63,4.343-2.209,2.289-1.996,10.237-5.601,5.832-.846.845,2.422,3.472-.394,2.856-.504-.013.603-.852.052-2.007-3.16.236.873,2.88-.965,4.285-2.383-4.496-4.192-2.412-1.195,1.699.811,4.306-5.429-2.953-5.888,1.341.69,1.444,1.703,1.457,2.394,2.901-2.232,1.109-.896,2.844-3.128,3.961-4.134-2.35.853-.852-3.15-2.913l2.008-.537c-2.806-.612.565-1.431-1.527-3.182-1.378.267-1.005,3.144-1.441,4.856-1.453-1.455,1.078-1.416-1.379-2.884l.041,1.143c-.276-.578-.799-1.156-.437-1.437-2.546-.824-.417,2.314,1.234,3.492-.028-.012-.051-.028-.081-.039,1.009,3.163-2.389,3.399-1.653,5.985-2.165-2.644-.47,2.194-.734,3.711-1.545-.594-2.924-3.478-3.73-1.486.949,1.448,3.661,2.919,2.443,4.045,0,0,.043-2.006-1.353-2.307-.31,1.993-.761-.016-3.175-.335,1.101,2.304-1.747.548.896,3.448-2.211-1.467-1.43-.885-3.477-1.486,1.817,1.175.121,2.864,1.964,4.614-2.35-1.757-1.291-3.743-4.376-4.937.718,2.016.021,3.725,2.136,6.042-1.003-.011-2.036-.596-3.033-.048.259.017-.022-.566-.158-.855.115,2.861-3.401,3.391-1.494,6.851-1.859-2.214-2.692-.59-3.55-.155-2.506-4.553-5.188-8.879-8.062-12.967l1.648,1.23c-.312-1.715-1.52-3.172.232-3.716,7.033-1.041,7.72-9.042,13.702-11.243-.285-.213-.494-.27-.774-.292,6.903,1.1,1.569-12.959,7.847-9.053,1.306-1.986.412.864,2.552.609-1.772-2.206.263-3.578.617-5.189-.11,1.209,1.328,2.698,2.027,1.797-1.934-4.04.638-6.001,1.419-8.565,1.568,1.167,4.211.923,7.177,2.394-.319-.668-1.059-2.028-1.799-3.332,1.488.278,1.261-.854.886-2.094-.508.557-.942,1.062-1.255,1.467-.032-.06-.069-.122-.102-.177.109.356-.661,1.102-.28,1.122-2.325-.31-3.479-5.011-.132-3.748.902-.285,1.248-.694,1.766-1.359,2.272,2.419,1.804-3.786,1.366-5.616,1.132,2.881,2.485,2.039,3.938,3.493-.012-.217-1.193.791-2.592,2.111,3.6,2.785,1.712-2.4,4.578-3.261.762,2.678,2.169.144.469-1.637,6.55,2.932,1.953-2.282,3.831-3.365l.557,1.457c2.046-.365-.491-2.466,1.329-2.634.6,3.102,1.78-1.541-.207-4.32l1.41,1.744c.128-2.01.221-5.957,2.379-3.842-3.618-2.945.609-4.059,1.604-4.927-.224.417.408,1.166.727,1.549-.211-4.124,3.891-4.025,5.833-6.04,6.491,5.402-.69-3.414.475-5.114l.734,1.555c1.923-2.405,4.224-5.734,6.25-2.585-.163-1.328.573-2.047.413-3.381,5.218,2.567,3.224-7.317,10.001-5.401l-2.832-3.142c.993-.867,1.588-2.655,4.264-.85l-.25.163c2.19,2.376.983-.879,2.067-.954.189-.689-.857-2.616-1.688-2.692,3.987-.951,6.087-6.191,10.328-5.023,1.52-5.776,2.7-14.115,10.707-8.67.733-3.205.373-6.76,2.305-9.119.417.796.693.563.91.943.926-5.336-2.428.903-2.644-3.458,2.659.134,2.037-2.393-.18-2.703.29-.253,1.848-.429,2.553.124-2.895-1.556-1.884-7.534-4.562-8.71,5.263.473,4.729-2.415,1.986-5.668.008-.001.009.009.009.009,1.527-1.849.728-5.745,1.144-4.949.267-4.23-1.484-.463-3.432-3.388l-.679,3.434-1.346-5.723,1.53,2.135c.61-2.791-1.917-5.234-2.285-8.335l-1.245,1.612-1.36-3.413c2.912-.749.054-4.61,3.735-3.135.584-6.643-3.653-10.333-4.803-16.095.202.597.686.243,1.124.37.194-3.577-1.627-5.468-3.442-7.349,4.991,2.758-.067-2.526-1.343-5.712.828.802,1.019.195,1.517-.624-6.634,1.417-12.851-2.45-19.689-.338l1.513-2.453c-3.527-3.939-3.251,3.926-6.377,3.09-4.881-.843-26.025-11.867-25.548-4.986-.847-1.731-1.891-2.916-1.765.033-3.326-4.375-11.558.981-13.57-5.414-4.031,1.723-6.086-2.526-11.073.214-1.241-1.46,1.999-2.194.129-2.821-9.782,6.136-11.125-3.655-19.681-2.504,1.372-2.04-2.922-3.49-.751-.262-4.739,1.002-5.736.934-9.344.754,1.746-1.238-1.244-1.473-1.107-3.521-.747,4.655-4.67,2.489-7.724.715-2.168,2.075-2.334,12.555-5.704,8.413-2.926,4.948-.34,18.297-6.672,17.033-1.01,2.511,3.241,3.111-.323,5.472-.632.592.706-2.225-.054-3.572-3.946,4.271,1.265,3.967-.955,8.668-4.595-5.61-4.308,2.414-1.396,4.428,1.272,6.535-6.979,1.471-7.299,9.535.951,1.681,2.221.465,3.172,2.145-2.731,4.664-.953,6.065-3.684,10.744-5.32.943,1.018-2.531-4.121-1.243l2.485-3.391c-3.553,2.357.623-3.192-2.103-3.695-1.711,2.149-1.073,6.722-1.516,10.247-1.907-.767,1.267-3.792-1.9-3.357l.12,1.947c-.38-.673-1.07-1.043-.633-1.978-3.06.855-1.007,5.205,2.5,4.481-.807,2.541-2.71,9.446-2.564,12.621-3.232-1.721-.161,5.011-.699,7.382-1.971.849-3.871-2.507-4.763,1.959,1.276,1.371,4.761.629,3.302,4.085,0,0-.066-3.558-1.832-2.38-.27,3.862-.955.902-3.999,3.292,1.517,2.682-2.157,3.091,1.328,4.931-2.858.137-1.844.199-4.445,1.65,2.347-.167.322,4.857,2.736,5.664-3.049-.201-1.841-4.964-5.778-3.283,1.019,2.647.248,6.485,3.037,7.95-1.225,1.174-2.516,1.446-3.707,3.466.113-.329-.187-.859-.346-1.148.314,4.86-4.06,10.081-1.464,13.797-3.868-2.511-3.995,8.448-6.66,3.765-.549,1.756.158,5.154.707,6.051-3.197-1.498-2.527,3.89-5.209,4.957,1.452,1.695-.39,4.496-.068,6.778-.059-.982-.449-1.651-1.457-1.716.506,2.62-.567,1.588-2.849,2.729-.039.985.2,1.411.573,1.598-3.457-.398-7-.707-10.639-.917.16-1.162.225-2.82.17-5.192,1.888,1.012,2.053-.598,1.081-1.561,1.582,1.081,2.407-4.361,3.614-6.54l-1.842.216c-.558-9.654,11.76-9.229,6.848-18.941l2.538.164c-.493-2.615-2.093-3.688.07-6.777,8.752-10.409,9.136-25.23,16.502-36.384-.37-.024-.636.131-.988.435,9.109-8.326.621-18.684,8.723-26.402l.572.996c1.518-5.067.568,1.005,3.235-2.054-2.467-1.775.376-7.066.505-10.292.386.667-.065,1.612.002,2.585,6.477-.113-5.557-17.302,13.01-22.734-3.059-2.454-.552-5.219-1.467-8.366-.604,1.594-1.117,3.005-1.486,4.097-.044-.065-.094-.13-.139-.185.161.495-.632,2.341-.389,2.354-2.378,1.183-1.261-.754-3.371-1.448.884-4.523,4.38-5.389,5.219-9.524.64,1.781,3.253-3.98,1.654-3.086.251-.853.672-1.208.506-2.017l-1.751.551c2.594-2.188.094-5.591-.31-2.157-.085-3.394-2.779.655-.811,2.56-3.213-1.231-12.833,1.514-11.322-2.549-2.119.331-4.86-.075-5.853-1.723-.126.485-.754,1.314-.509,1.914-2.546,1.797-.255-2.157-2.302-1.05.578-.335,1.127-.638,1.317-1.37l-5.238,1.356c.917-2.098-7.163-6.39-3.927-1.739-2.175,1.296-1.537-1.425-2.039-2.632l-2.303,2.283.315-2.446c-4.589,5.476-6.206.944-9.464-2.685-1.015,4.62-4.856-.872-6.115,2.365-3.594-4.096-9.833-2.818-15.058-4.595l.499-.349c-1.984-2.496-3.12,3.165-5.459,1.867,1.237-3.726-8.988-2.087-11.3-.533.716-.609.619-2.152-.377-2.129-.952.796.33,3.384-1.252,2.257,1.192-3.202-1.522-.089-2.094.54-3.947-4.023-16.935-2.906-13.485-6.416-3.668-.83-11.978,4.424-10.797-1.378-1.594-.229-1.579,3.984-3.308,1.286-.411-.428,1.396.022,2.136-1.091-2.908-2.504-2.266,2.357-5.28,1.617,2.771-5.147-1.207-4.417-2.777-.037-3.805,3.111-1.497-6.201-6.359-4.157-.923,1.393-.083,2.245-1.006,3.638-3.036-1.236-3.719.86-6.765-.372-1.034-4.779,1.607.23.382-4.276l2.252,1.373c-1.726-2.688,1.968-.338,2.029-3.074-1.439-.999-4.123.938-6.275,1.543.292-2.035,2.385.099,1.844-2.782l-1.156.68c.37-.556.531-1.32,1.13-1.177-1.165-2.614-2.814.811-2.587,3.043-.015-.044-.02-.084-.039-.129-2.447,2.631-5.556-.072-7.63,2.004.918-3.389-2.832,1.003-4.486,1.486-.683-1.625,1.162-4.407-1.594-3.953-.709,1.611.043,4.706-2.157,4.326,0,0,2.126-1.098,1.265-2.433-2.338.868-.625-.644-2.326-2.84-.93,1.401-1.499.58-1.993.746-3.514-5.533-7.346-11.079-11.493-16.64.289.032.615.142.994.357,7.011,5.283,15.928,1.332,23.262,5.081-.018-.358-.135-.566-.348-.812,4.715,6.507,14.542-6.156,16.047,1.433,3.171-.033-.552.833,1.516,2.475.846-2.86,4.268-1.7,6.213-2.517-.366.561-.972.407-1.55.755.446,6.044,10.45-10.237,14.774,5.738.427-.644,1.221-2.031,1.956-3.386.964,1.399,1.952.57,2.929-.444-1.009-.109-1.9-.186-2.586-.219.035-.06.07-.127.099-.186-.298.296-1.706.07-1.406.401-1.002-2.02.298-1.469.532-3.708,2.773-.488,3.456,2.508,6.168,2.184-.473,3.387,5.535-.791,7.004-2.035-2.049,2.574-.031,3.228-.323,5.262.216-.133-1.83-.548-4.384-.97.373,4.749,4.089-.043,7.256,1.978-2.15,2.35,1.777,1.713,2.102-.534,2.392,7.252,4.288.14,6.734,1.295l-1.049,1.288c2.104,1.501,2.156-1.804,3.865-.379-2.318.494.963,2.999,4.328-2.615l-.63,2.163c2.203-1.03,6.394-3.183,6.009-.186.021-4.685,4.744-1.786,6.486-1.446-.623.049-.871,1-1.002,1.482,4.12-2.507,7.473.973,11.21,1.455l.114,3.432c1.991.151,3.5-6.378,5.616-5.927l-1.003,1.492c3.608.451,9.254-.316,7.96,3.756,1.246-.887,2.616-.679,3.872-1.566,1.722,5.807,10.343-1.445,14.056,5.295l.889-4.141c1.74.338,4.106-.175,4.479,3.079l-.381-.116c-.631,3.171,1.744.324,2.735,1.186.878-.231,2.004-2.195,1.383-2.931,4.351,2.791,11.582,1.581,13.935,5.78,8.375-2.305,6.839.185,7.838-7.486l.784,1.866c2.542-3.137-.763-3.709,1.509-6.226.222,4.334,2.726-3.376-.517-7.297l1.871,1.326c.038-3.472-.062-9.921,2.323-9.713-3.941-1.097.99-7.835,2.147-10.477-.256,1.002.581,1.54,1.003,1.82.099-5.391,4.692-18.937,10.464-17.353,1.126-3.156-4.713-6.532-3.222-9.845l1.012,1.822c2.457-4.975,2.864-13.84,7.678-12.151-.284-2.121.596-4.277.317-6.414,6.692-1.888,3.605-16.726,12.212-21.656l-3.736-2.032c1.193-2.729,1.833-6.58,5.293-6.695,0,0-.303.591-.303.591,2.691,2.118,3.461-8.571.257-6.833,4.94-6.532,7.26-18.255,12.642-21.392,1.337-6.192,1.169-15.549,4.225-21.797,6.277,3.376,12.571,6.215,18.884,8.473.27.484.646.955,1.178,1.407-2.45,4.546-1.705,10.984-5.766,14.945,1.906,2.791-3.58,5.083-2.564,6.895-2.347-3.093-1.715-.023-2.087,1.77-.229-1.707-2.38-3.494-3.633-1.186.222.886.437,1.266.651,1.401-2.1.432.275,4.264,2.839,1.634-2.636,6.469-4.053,13.333-6.776,18.946l-1.331-1.248c-.703,3.432-2.454,7.747-4.6,9.089.428.272.955,1.398,1.679,1.096.56,4.303-2.262.137-2.189,3.444-.053-.945-.103-1.83-.731-2.231l-1.197,8.563c-1.323-1.922-10.074,10.451-3.673,6.012.217,5.761-5.631-1.067-2.475,6.88l-2.31-.866c3.196,9.246-2.256,9.754-7.335,14.711,4.032,4.716-10.102,24.067-12.607,33.471l-.107-.848c-3.485,2.797,1.662,5.45-.79,8.991l-.255-1.236c-4.347,4.066-5.747,13.704-5.812,19.197-.263-1.234-1.865-1.307-2.329.286.336,1.638,3.57-.026,1.661,2.333-1.552-1.43-1.543-.234-1.213,1.139,2.56-1.281,4.983-3.271,8.003-1.675-2.848,2.515,1.683,1.133,2.366.286-.107,2.784.718,1.669,2.495.581-.829,5.123,9.501-.188,13.068,1.301-.867.233-.623,1.619-.375,2.225,2.377-3.629,7.236-1.984,9.221-2.616l-1.363,1.359c3.984-2.034,2.545,4.537,6.503,2.475l-1.741-2.529c1.369.871,2.718.301,2.618-1.481,1.515,1.531-.217,2.997,2.298,3.737-2.835,1.954-.059,3.193,1.828,5.406.447.318,1.092.539,1.708.337.385-4.887,2.984.162,1.874-4.81,5.088.362,8.882,4.17,13.525,2.549,1.098,4.96,8.55,1.403,7.248,7.399,1.891,1.464,8.895-3.83,4.756-2.405.86-1.451,3.837-1.283,5.06-1.084-1.804,1.144-4.569,1.959-6.159,4.097,2.303-.27,5.724-2.094,7.069-2.67l.118,3.208c2.199-2.023,1.206,2.748,3.522-.063l-.22-.987c3.399.714,3.889-2.39,7.138-2.333-1.242,3.52,2.862-1.496,3.42,2.152-4.132-1.102-.876,3.205-.187,4.429,2.29-.256,1.289-3.456,2.437-3.587.175,2.113-.042,1.115-1.099,3.017,2.572-.375,6.018-.767,8.148-3.139.064.336-.126.775-.126.775,3.769-.48-.358-10.352-.902-14.298,6.858,7.552-2.492-14.141-3.811-16.747,3.708-.836,1.597,7.779,5.208,7.572-1.874-7.536-4.243-15.229-7.32-23.472,5.097-3.714-3.368-7.992.209-13.847-1.775.748-2.796-1.785-3.233-4.641,1.633.781,1.265-2.246,2.462-1.552-2.026-2.281-3.7-9.426-.075-9.627-2.847-.321-3.965-14.008-4.429-17.935-1.816,1.534-1.636-2.814-2.415-4.645,3.169,1.314-1.652-4.464-.829-6.296.652-1.121,2.051-.022,2.004-1.692-1.557.172-4.182-5.607-2.582-8.097.13,1.033.918.945,1.608,1.493-4.096-10.21-2.372-21.931-6.974-32.304l2.878,1.56c2.455-7.201-4.908-3.848-5.251-9.251-.355-1.364-.286-6.166-.2-11.984,5.128.933,10.269,1.469,15.422,1.593-.087,1.348-2.135,1.947.482,3.987l.856-.723c.558,5.802,3.682,5.456,4.81,10.772-3.734-.359,2.525,4.337-.798,6.367-.411-6.782-2.856-1.271-4.271,1.331,1.076,3.637,3.749.825,4.29,2.647-1.941,1.066-1.073.343-3.262-.677.236,3.937,5.439,10.913,5.161,12.2.216,4.366,4.431,7.669,3.039,10.547l-.415-.796c-2.54,3.863,4.055,8.557-.999,9.966-.736,1.765-.299-3.743-2.474-.777-.931,5.356,4.783,2.812,3.938,7.522.079-.641-.206-.399-.703-.546,1.556,9.11,4.228,20.691,1.344,30.229,1.513-1.854,2.184,1.003,2.957.906-2.409.192,1.314,2.547,1.799,2.578-1.281,1.719,2.297,4.916,1.447,6.013,1.089-.121,1.004,1.403,1.211,3.057-1.665-3.149-2.47-.751-4.373-2.01.411,5.424,8.805,7.441,3.714,13.41,3.204.156,2.582,5.098,3.729,4.834-.856,1.013-1.249,2.379-2.841,2.399.608,2.351,1.078,8.92,2.363,3.702-.689,7.014,9.248,15.753-1.431,15.459-1.474,3.523,3.391,5.69.936,8.898,1.436-1.2.937-1.351,2.763.531.154-1.28-1.372-3.406-1.624-5.474l3.344,4.016-2.255-6.658c2.239,2.679,1.748,2.532,3.477,1.078,2.071,3.956-1.638,4.792.723,8.502-.452,1.524-2.344.275-3.074,2.04,1.9,2.929-1.489,6.301-.326,8.56-1.898-.793,1.838,7.127,1.812,2.052.127,2.617,3.212,1.241,4.867,1.333,2.031,4.569,8.208.113,10.532,5.425-.715-1.868,1.046-1.9,1.161-2.671-.416,2.121,1.632-.405,1.85-1.187.689,1.614,3.28-1.163,3.713-.101.171-1.082,1.012-.67,1.992-.513-2.144.933-.966,2.233-2.095,3.805,3.502.734,5.875-7.045,8.387-.699.792-3.073,3.446-1.4,3.548-2.57.384,1.049,1.069,1.726.731,3.274,1.413-.187,5.518,1.049,2.609-1.49,5.502,1.612,10.871-4.876,8.414,4.732,1.666,2.192,3.958-2.057,5.229,1.018-.362-1.652-.557-1.201.906-2.564-.689-.426-2.224.593-3.447.39l3.002-2.373-4.254.745c2.004-1.591,1.813-1.147,1.372-3.138,2.688-1.152,2.346,2.625,4.959,1.139.761.768-.359,2.332.477,3.422,2.337-1.364,3.512,3.937,5.371,1.682.414.552-.883.017-.924,1.128,1.648.025,4.194-.87,1.871-1.955,1,.274,1.443-1.611,3.23-.238,1.276-.916,2.245-3.141,1.027-3.345.538-.229,1.445,1.188.859,2.538,3.024.493,2.167-4.784,4.773-2.135-.925.554.074,1,.83,1.04-1.52.616.593,3.631-2.061,2.47-.022,2.542,2.251.847,3.086,1.942,1.733-1.47.678-3.555,1.606-4.679-.126.781.49.877,1.173,1.308l-.44-1.981c.619.093,1.225.193,2.033-.151l-1.351.58c1.152.466,2.557,3.106,4.687,2.668-.271-.119-.549-.252-.854-.482.836.387.943.643,1.702.162-.143.131-.314.289-.486.465.836.305,1.581.424,2.517,1.469.536-1.038,3.055-2.808-.058-2.551,4.006-3.39.62-9.495,7.197-2.255,2.396.339.07-3.741,2.984-2.605-2.451-1.145-1.066-3.606-2.75.215l-.577-3.346-1.209,3.104c-.39-2.238-.126-1.842-1.853-2.815.237-2.387,3.017.189,2.964-2.362.914.009,1.654,1.682,2.849,1.846-.074-2.302,4.522.286,3.557-2.278.602.089-.358.558.485,1.279.666-.96,1.151-3.151-.728-2.384.632-.449-.641-1.902,1.172-2.151-.174-1.364-1.489-3.358-2.158-2.73.048-.477,1.526-.153,2.325,1.056,1.651-1.567-2.793-4.338.351-4.296-.04.863.791.602,1.153.139-.158,1.326,3.059,1.903,1.047,2.821,1.959,1.604,1.601-.865,2.799-.698-.41-1.994-2.468-2.645-2.948-3.924.552.567.885.245,1.505.092l-1.718-.967c.332-.326.664-.639.737-1.355l-.118,1.2c.952-.476,4.183.584,4.142-1.962.213.88.64,2.63,2.171,2.485.517-2.23.883.242,2.681.492,1.071-1.658-2.16-2.638.686-3.818.224-.21-.765-.798-1.353-.951,1.907-.676,1.85-2.215,3.759-2.694-.78.124-1.44-.053-1.314-1.281.764,1.437,2.124-.064,3.324.106l-.536-.807c1.14.317.987,1.046.894,1.625-2.436-.579,1.987,4.011,3.231,2.71.482-1.745-1.49-3.359-2.35-3.839,2.203-.775-1.683-4.475.783-4.854.331-.319,4.114,1.301,5.407.517-1.004-2.075-2.44.138-3.158-1.776,5.409,2.914,1.844-11.245,7.33-3.687.646-.402,1.289-.79,1.671-1.589-3.294.352-.833-2.927.933-.231-.341-2.713.804-2.067,2.39-2.688-1.321,1.019-.282-.24-.162,1.589,2.149-.304,1.617-1.027,2.047-2.296,2.836,3.258,2.494-2.04,4.011-3.793l.556.563c1.153-2.576,5.773-1.993,5.997-5.53l-.005.005c-.126-.041-.185-.138-.296-.126-2.01-.926-.009-2.639.098-4.026,2.889,1.969.581-.237,1.099-1.902,2.104,1.431,4.509,1.644,1.72-1.182,1.038.964,4.551-.182,2.558.813.812.961.886.247,1.992,1.375.641-.395-1.347-1.766-.12-1.835.155.618,1.218,3.345,1.119.883-.073.715,1.321,1.999,2.159,2.727.54-2.471-3.257-3.847-4.625-5.376.562-.088.958-.309,1.255-.606,2.43.578,4.902,1.113,7.422,1.599.461.709,1.617,1.102,2.778,1.757-.251.339-2.077,4.936-1.609,1.672-6.134-1.182-1.932,8.098-9.113,6.498,3.506,1.31-2.258,6.259-3.074,3.565-1.164,3.051-2.582,9.439-4.45,5.146.362,2.465-5.379-.762-2.669,2.528l.622-.152c-2.579,1.576-2.719,6.037-4.483,8.568-2.295-1.291,1.051-1.425-1.513-3.112-2.196.782-2.196,3.805-4.419,4.822.047-.48-.229-.636-.218-.878-2.768.458,1.964,1.61.341,2.707-.81-.958-1.098-1.114-2.009-1.121l1.034,1.835c-.293-.161-1.39-1.281-1.631-1.924,1.276,2.485-1.808,3.017-.521,5.259-1.099-1.383-4.438-4.917-3.601-.259-.006-.006-.002-.009-.002-.009-1.754-.738-2.804.692-2.755.213-1.887.709.789,1.202.889,3.278l1.836-.233-1.429,2.228c-.353-3.811-1.276.587-2.012,1.891,1.627.356,1.495.947.986,2.322-2.22-2.003-1.901.949-3.728-2.102-3.072.992-1.776,4.932-3.35,7.023-1.264-2.467-2.253,1.5-1.297,3.221-1.863-3.596-1.177-.254-1.427,2.224-.485-1.28-1.062-1.609-1.679-1.443.835.715,1.053,1.595,1.008,2.079-3.117-5.283-3.321-.105-5.963-4.111.817.962.415,5.026,2.738,6.071l.077-.705c1.204,1.114.215,1.188-.104,1.672.013-.402-.027-.881-.259-1.125-.572,3.029-3.312,4.046-4.792,6.55,1.46.152,2.242,4.115,4.624,5.119,1.316-2.011-2.2-1.958-.81-3.64,1.387,6.199,13.009-4.784,10.018,4.035.963.312,1.91.629,3.064.497l-1.252-1.642c1.075-.458,3.327.396,2.279,2.29,2.54-1.818,2.832-.498,4.815.475-2.175-.527.012-.371-1.793.763,2.128,1.622,2.433.769,4.118.411-.812,4.392,4.618.754,7.333,1.203l-.118.782c3.656-.494,6.942,3.692,10.817,1.88h-.009c-.057-.128-.025-.237-.107-.312-.707-2.26,2.688-1.472,4.267-2.203.475,3.545.535.444,2.909-.158,1.101.977-.556,2.776,1.545,2.96.835-.087,1.106-1.29,1.137-2.193.27,1.249,1.468,2.365,2.529,2.803-2.386-.084-.775.039-.976,2.232.952.312.706-2.123,1.811-1.137-.658.696-2.434,2.886.023,1.433-.807.343-.971,2.233-1.023,3.344,3.03-.947,1.265-4.893,1.707-6.9,2.474,1.836,4.937-.301,7.039-.122l-.705,2.117c1.675-.186,1.914-2.032,3.694-1.276-1.014.65-1.412,1.293-1.727,3.026,1.752-.364,3.962.513,4.808-2.333.132.604.837,1.11,1.727,1.554-2.407,1.92-4.75,3.851-7.026,5.794-.204-.74-.088-1.454.872-1.922-3.257.474-2.763,1.203-2.201,3.066-.552.478-1.099.957-1.642,1.436-1.717.194-3.584.314-1.149-.621-3.937-5.788-10.067,2.965-14.451-3.934,1.182,3.842-8.373,1.547-6.306-.551-3.725.521-11.806,3.456-9.113-.805-2.264,1.696-3.738-4.92-4.883-.799l.683.433c-3.816-1.261-8.583,1.143-12.707,1.102-.588-2.645,2.37.072,1.969-3.022-2.665-1.391-5.815.318-8.749-.963.541-.232.47-.55.732-.678-2.809-2.052-.023,2.55-2.533,1.815.316-1.217.236-1.546-.524-2.311l-1.041,1.901c-.079-.335.163-1.885.631-2.449-1.514,2.47-4.668.196-5.919,2.538.743-2.569,1.068-6.234-2.764-3.152.001-.008.007-.007.007-.007-.708-1.881-3.084-1.949-2.543-2.18-2.33-1.175-.587,1.338-2.667,2.595l1.79,1.401-3.527.067,1.541-1.022c-3.823-2.284-1.926,3.725-5.781,2.539,1.471,1.158,1.119,2.46.251,3.398-.759-1.381-1.741-.458-2.249-1.496.411,1.995-1.378,4.772-3.846,2.122,2.269,2.685-1.816,1.579-.717,3.982-1.925.07-1.625,2.656-3.624,3.158,1.826,1.025-.081,1.828-.293,2.807-1.559-2.748-.653,2.104-1.998,1.952-.883-.244-1.359-1.519-2.004-1.126,1.095,1.12.485,4.311-1.576,3.656.332-.318-.222-.885-.454-1.515-1.435,5.234-7.312,6.47-8.479,12.115l-1.263-2.473c-4.53-.279,1.675,4.473-.286,5.888-3.511,2.982-19.633,8.361-14.588,12.72-2.082-.73-2.741-.373-.716,1.115-4.784-.676-4.094,7.78-9.89,5.025-.359,3.577-4.511,2.193-4.484,7-1.652-.145-.859-2.612-2.129-1.845.421,10.373-7.412,4.342-10.203,10.635-1.173-2.211-3.757-.234-.518.302-1.214,3.565-1.686,4.141-3.34,6.266-.112-.921-.522-.965-1.093-.943,2.325,3.2,1.257,4.221,1.061,7.694-.291-3.738.356-.116-1.376-2.64-.765,4.066.155,4.249,1.108,6.863-4.59.303,1.329,8.76,1.523,12.394-.607,4.077-.891,13.21,1.367,18.418l-.002-.015c.066.1.082.202.142.283,1.828-3.762,2.618,3.844,3.755,5.568-.579.482-1.645.819-1.518,1.848,2.348-.258,1.524,2.132,2.725,2.835-.527,2.154-2.836.118-2.248,3.61.387,1.329,1.626,1.326,2.495,1.044-1.087.901-1.71,3.266-1.74,5.157-.859-3.252.411-2.073-2.473-.767.05,1.666,2.271.367,1.739,2.532l-2.104-1.656c-.357.888.553,1.833.752,2.223-5.612-3.237-3.994,4.688,3.623-.198-.843,4.71,2.081,7.935,2.675,11.426l-2.265-.368c.909,2.65,2.755,2.839,2.554,5.548-.986-1.413-1.741-1.824-3.499-1.698.983,2.721.954,6.646,3.963,6.974-1.838,2.204-.169,12.153-1.597,11.592,1.503,3.882.513,9.195,3.408,8.918,1.016,2.297-2.879,6.703.97,7.924-1.525,3.095-.756.256-3.014-.325-1.519,3.092,3.729,5.319-.291,6.825,1.728,3.139.755-.885,2.745-.02-3.761,1.221.213,6.236-1.572,9.637,1.579,1.064.943-1.032,2.25.131ZM440.564,308.584c1.062-.504,1.769-2.081,2.77-2.463-.884-2.289-1.956-.177-2.77,2.463ZM437.028,312.642c2.225-.585,2.245-3.143,2.021-4.132.142.075.275.121.406.16-.11-.179-.244-.367-.437-.573-.45,1.236-2.608,3.558-1.99,4.545ZM422.336,305.456c-.401-1.212.558-1.766.427-2.297-.583.639-1.08,1.485-.427,2.297ZM97.192,256.331c-.043-1.259-1.299-.787-1.359.355.166-.53,1.071-.286,1.359-.355ZM98.877,271.807c-.274-.081-.62-.037-.858-.022-.075-.002-.165-.004-.225-.005.048.013.13.011.225.005.234.005.516.012.858.022ZM103.224,272.349c-.554-.742-1.512-1.331-1.202-1.812-.43-.103-.708.666-.667,1.455.698.085,1.353.194,1.868.357ZM193.153,299.269c-.949-.242-1.715,1.674-.307,2.222-.459-.636.282-1.733.307-2.222ZM209.526,298.855c-.259.877-.408,1.379-.515,1.742.073-.368.444-1.102.515-1.742ZM212.241,292.012c-1.019.774-2.081,2.217-2.413,1.65.319,3.082,2.098-.573,2.413-1.65ZM273.825,450.879c-1.112-.79-1.051.454-.296,1.065-.336-.336.196-.846.296-1.065ZM286.138,460.025c.125-.153.318-.353.342-.536-.15.244-.258.409-.342.536-.047.058-.087.11-.102.15.029-.043.064-.094.102-.15ZM288.758,457.164c-1.624-.013-2.893-.773-1.061.935.359-.38.718-.718,1.061-.935ZM354.273,368.669c.335-2.025,2.077-3.367,2.321-4.525l.48,1.696c.099-3.743,4.581,1.262,4.647-2.483l-2.689-.503c1.249-.304,1.374-1.497-.047-2.55,1.821.019,2.229,2.01,3.858.914.125,2.531,2.454,2.28,4.968,2.255.343-.053.883-.339.963-.853-3.621-3.297,1.379-1.749-2.936-4.172,2.417-2.927,6.958-2.897,7.653-6.79,4.3,2.423,4.676-4.423,8.772.138,1.926-.21.709-8.334.135-4.455-.762-1.441.618-3.182,1.286-3.816.129,1.834-.402,4.059.585,6.383.758-1.597.783-4.859.901-6.054l2.532,1.935c-.643-2.629,2.633.972,1.43-2.223l-.857-.481c1.98-1.66-.217-3.907,1.192-5.886,2.428,3.15-.172-2.732,3.102-.773-2.647,2.122,2.537,2.55,3.35,2.887.763-1.58-2.134-2.962-1.754-3.756,1.709,1.214.845.724,1.874,2.569.79-1.829,1.934-4.211.992-7.016,1.969,2.176,1.218-6.347,2.765-3.479,3.235,1.058.792-4.85,4.69-1.397,1.199.168-1.318,1.025,1.314,2.005,2.78-.458-2.012-4.158.45-4.541-.311.079-.026.239.242.639.951-1.113,1.962-2.84,2.724-4.352,2.765,1.008,3.451-1.243,4.85-2.578-.706.399-1.367.996-2.024,1.605,2.538-2.695-1.54-2.327-1.356-.38-.594-.626-1.053.438-2.164.446.897-1.111.788-1.637.089-2.217-.042,1.101-.776,1.781-1.317,2.017,2.866-5.56-2.626-2.866-.762-7.239.014-.025.023-.047.023-.062-.01.023-.013.039-.023.062-.413.732-6.525,5.516-3.197,5.322-.147,1.635-1.057.851-1.829.859.43-.216.896-.521.954-.852-4.113,1.395-7.878-.977-12.397-.124,5.523-4.955-7.82-.849-10.292.071.342-3.777,4.743.135,5.419-3.412-4.666.187-9.53.818-14.86,2.019-.977-5.746-5.252,1.536-7.772-3.199.033,1.883-1.622,2.325-3.33,2.131.799-1.414-.99-1.712-.336-2.723-1.733,1.471-6.135,1.547-5.452-2.011-.488,3.481-4.387-.934-4.356,1.919-.068-.053-.144-.234-.214-.481-3.265-.865-4.356-1.166-3.929,2.834,2.025,2.281,3.62-.208,5.024.89-.787.083-.654,1.123-.815,2.394l1.72-1.448c.137,1.043.262,2.068.882,3.257l-1.042-1.987c-.026,2.311-2.566,6.163-.216,9.885-.91-.953-2.719-2.843-3.33-.052,1.791,4.192-.651,1.123-1.752,3.775.998,4.271,3.464.298,3.162,6.84.084.69,1.103-.097,1.527-.859-.307,4.201,1.122,6.397.646,10.3.267-1.476.751-2.294,1.806-.266-1.092-1.221-2.443,5.762-.712,5.732-.844,1.443-1.437.1-1.922-.919,1.985-2.92-4.552-3.033-4.05,1.396,1.364,3.41,3.799,2.499,4.656,1.768-.36,4.858,4.914,3.837,4.064,8.549.344.075-5.981,11.404-1.405,6.63-.023.087-.024.175-.007.262.198-.906.372-1.783,1.098-1.467ZM354.748,371.499c-.345-.714-.502-1.364-.531-1.959-.756.941-.538,1.668.531,1.959ZM364.882,509.389c-.202-.199-.378-.366-.55-.528.17.212.352.392.55.528ZM286.138,460.025c-.047.058-.087.11-.102.15.029-.043.064-.094.102-.15ZM406.533,311.636c.014-.025.023-.047.023-.062-.01.023-.013.039-.023.062ZM485.572,247.809c-.087-.053-.161-.079-.232-.099.076.033.145.068.232.099ZM339.223,409.387c-.177-.136-.334-.248-.47-.333.151.21.308.284.47.333ZM266.022,461.855c.017-.079.035-.158.044-.239-.022.078-.036.157-.044.239ZM195.547,287.579c-.041.348-.068.741-.058,1.238.05-.493.067-.901.058-1.238ZM62.232,267.342c.023.225.058.443.122.636-.005-.192-.045-.407-.122-.636ZM272.621,146.883c.368.014.807.089,1.356.272-.51-.932-.944-.495-1.356-.272ZM485.572,247.809c-.126-.041-.185-.138-.296-.126.02.009.043.018.064.027.072.02.145.045.232.099ZM94.306,258.473c.112.217.222.403.338.559.117-.224.236-.445.343-.663-.127-.005-.256-.017-.375-.018-.106.036-.174.12-.306.122ZM487.17,318.057c-.01-.03-.022-.06-.031-.089-.013-.011-.02-.024-.039-.034.026.04.048.081.07.123ZM487.246,318.278c-.057-.126-.025-.235-.107-.31.009.029.02.059.031.089.033.063.061.132.076.221ZM162.485,285.194l.075-.564-.449.438.375.126ZM401.507,317.817c-.108-.003-.218.012-.32.057-.78.329-.267.228.32-.057ZM439.78,317.997c-.456.347-.906.687-1.357.879.644.266,1.156.385,1.357-.879ZM359.217,314.489c.006-.013.003-.019.01-.038-.091-.005-.169-.024-.259-.037l.249.075ZM436.683,318.586c.604.541,1.176.524,1.739.289-.526-.227-1.139-.548-1.739-.289ZM468.734,313.539l.435-2.003c-1.149.131-.123.783-.435,2.003ZM456.678,323.781l.779-1.783-1.676.37.897,1.413ZM451.084,306.968l.525-.219-1.952.47,1.427-.251ZM350.363,293.264l-.023,2.543c.813-.341,1.372-3.122.023-2.543ZM306.562,289.577c-.294-1.315-1.401-2.292-2.33-1.175.952.312,1.786,1.424,2.33,1.175ZM177.867,266.127l-1.746.46c.584.449,1.297-.076,1.746-.46Z" fill="#FFFFFF" id="lbLedKleQwtSu_2vZdl8P" /></g></g><g transform="translate(687 321)" data-asset-index="9"><g clip-path="url(#assetClipPath_w_OmemFA)" transform="scale(1 1)" data-asset-index="9"><circle cx="40" cy="40" r="40" fill="#FFC523" transform="scale(1.175 1.175)" clip-path="url(#clipPath_r7K6xHJM)" id="RWqf9DBtP1qFkrUyZDxL8" stroke="#E0A500" style="stroke-width:0;vector-effect:non-scaling-stroke;" /></g></g><g transform="translate(776 205) rotate(-11.301516628736932 205.5 119)" data-asset-index="10"><g clip-path="url(#assetClipPath_WC2kdjv_)" transform="scale(0.8414423673397523 0.8420903654955242)" data-asset-index="10"><path d="M488.447,0l-53.918,63.943c30.254,22.84,48.183,51.219,48.183,81.972,0,75.506-108.059,136.716-241.356,136.716C108.058,282.63,0,221.42,0,145.914,0,70.408,108.058,9.198,241.356,9.198c47.277,0,91.372,7.707,128.604,21.013L488.447,0Z" fill="#5AFFBA" id="l869JWjUT1-eMdi3eSOwc" /><g id="JhH2V8D0LF54HKT_kqs9R">
    <circle cx="160.514" cy="145.914" r="25.596" fill="#3A35A3" id="IXSn3zy4FAYoKxS8qpllZ" />
    <circle cx="241.356" cy="145.914" r="25.596" fill="#3A35A3" id="ENZl_5mxD4THd_PFBfRSP" />
    <circle cx="322.197" cy="145.914" r="25.596" fill="#3A35A3" id="kfuiFt3Iy-z3ZMigLhc9x" />
  </g></g></g><g transform="translate(628 931) rotate(-29.661773225895615 107 107)" data-asset-index="11"><g clip-path="url(#assetClipPath_vNU2DOHa)" transform="scale(1.0684187402644088 1.0684187402644088)" data-asset-index="11"><circle cx="100.148" cy="100.148" r="100.148" fill="#FF6C96" id="RJqXM_SNhIyiwaCo7LCPA" /><g id="GCwQyTBN_Pjo-JJWIEziC">
    <path d="M164.433,127.286c-.159-.436-.912-.651-1.238.176l.828,1.189.41-1.365Z" fill="#FFFFFF" id="L-hka9H84YXon7EUO2tT" />
    <path d="M159.281,131.063c-.066,1.159.126,2.788,1.519,2.953-.438-1.584.225-1.438-.489-3.231.319-.826,1.145-1.074,1.484-.692-.129-.443.962-1.029.488-1.853-1.482.459-2.209,1.626-2.309,3.367-.434.093-.533-.351-.692-.546Z" fill="#FFFFFF" id="fGgVYGUqrtpkxCIZsJxTR" />
    <path d="M85.535,157.909l.491.248c-.127-.111-.296-.19-.491-.248Z" fill="#FFFFFF" id="SINlMeQH1y7XjbjLe8pid" />
    <path d="M44.782,130.879c.252.286.452.334.56.277-.279-.23-.517-.413-.56-.277Z" fill="#FFFFFF" id="NmYx1lN1vy88WLq6-V1FJ" />
    <path d="M41.467,123.035c.047.176.097.319.155.471.009-.219-.013-.419-.155-.471Z" fill="#FFFFFF" id="VQcHE0zJ9H7OmLWlGxNN" />
    <path d="M85.535,157.909l-1.247-.648c-.175.407.618.437,1.247.648Z" fill="#FFFFFF" id="YlMkA7zM5hHHvZdeXzzp" />
    <path d="M154.15,142.208c.186-.245.265-.525.306-.809-.127.225-.253.441-.417.629.041.06.076.112.112.18Z" fill="#FFFFFF" id="FrcewTDc3hHTHysjHXB77" />
    <path d="M107.589,157.349l.402-.053c.099-.164.186-.359.264-.575l-.665.628Z" fill="#FFFFFF" id="UusSjarvZtNLyn31FG1Lg" />
    <path d="M123.919,153.311c-.373.082-.13,1.189-.111,1.704.056-.512.251-.816.539-1.012-.066-.204-.199-.427-.428-.692Z" fill="#FFFFFF" id="p3zDXsn02SDcvu8O4pzDr" />
    <path d="M148.097,141.59l.252-.444c-.06.121-.186.298-.252.444Z" fill="#FFFFFF" id="ig2jn1I677kTC800LxYSZ" />
    <path d="M95.55,157.637c-.022-.167-.077-.315-.138-.404-.005.14.05.276.138.404Z" fill="#FFFFFF" id="YwS6COesMlatYh9uEJVRr" />
    <path d="M110.303,68.544c-.056.059-.062.116-.103.172.166-.026.242-.072.103-.172Z" fill="#FFFFFF" id="Mj1aegbJcqls7mTgeL1C" />
    <path d="M116.431,90.167l-.08-.276c-.215-.024-.426-.049-.634-.043l.714.319Z" fill="#FFFFFF" id="cLLF1-DrZxuRvnTCz70G" />
    <path d="M37.739,108.883c-.009.029-.007.038-.012.065.198.338.126.137.012-.065Z" fill="#FFFFFF" id="d_bh2wIYdetKkFvOVQUN" />
    <path d="M131.671,59.316c-.291-1.859,2.643,1.092,1.92-1.457-.178.423-2.759-.392-1.92,1.457Z" fill="#FFFFFF" id="y-QyosmAV8xGnYr-weRDo" />
    <path d="M153.696,142.427c-.174.178-.353.356-.546.52.278-.207.446-.367.546-.52Z" fill="#FFFFFF" id="H8rLjlwCdBADFnSDbUZoq" />
    <path d="M133.591,57.859l.007-.006-.084-.261c.032.111.05.173.078.267Z" fill="#FFFFFF" id="ERXnjdpzx65QVFXDb5LH" />
    <path d="M44.592,76.762c-.205-.041-.404.001-.601.053.105.049.267.051.601-.053Z" fill="#FFFFFF" id="HrdkCbbCt5jbWRq6xeJm" />
    <path d="M35.035,100.601c.048-.21.135-.419.203-.627-.127.244-.192.448-.203.627Z" fill="#FFFFFF" id="Dqguj0FPTcaJ1-gdaRxeL" />
    <path d="M51.5,64.955c.304-.206.499-.189.717-.652-.072-.006-.131,0-.2.015-.008.236-.112.458-.517.637Z" fill="#FFFFFF" id="yjk3-1bkJH_Che_C9lC-j" />
    <path d="M62.22,55.46c-.112-.026-.231-.02-.347-.029-.105.098-.228.212-.336.313l.683-.284Z" fill="#FFFFFF" id="LzWPZs8-CO9TNBGcVebRX" />
    <path d="M63.315,81.226c.484-.129.906-.116,1.293-.06-.812-.242.464-2.473-1.293.06Z" fill="#FFFFFF" id="Btt4ci2pB_FVBVOmuzy" />
    <path d="M153.698,141.766c.133.263.133.454-.003.661.124-.132.236-.266.343-.399-.084-.149-.189-.268-.34-.263Z" fill="#FFFFFF" id="lMOI-o67joStNnW78938Z" />
    <path d="M45.416,58.463c.606-.605,1.256-1.166,1.905-1.725-.587.426-1.3,1.036-1.905,1.725Z" fill="#FFFFFF" id="FBPqKF5CQm28rYKNN4A98" />
    <path d="M111.736,133.375l-.694-.229c.227.159.47.252.694.229Z" fill="#FFFFFF" id="xr-EdwFir-fii9YgVL4I" />
    <path d="M52.836,51.49c.61.019,1.132-.103,1.614-.296.027-.135.077-.266.052-.412l-1.665.708Z" fill="#FFFFFF" id="pbrB8MYfAvokyncHgMI8D" />
    <path d="M64.621,81.168c-.007.002-.013-.002-.013-.002,0,0,.006.004.013.002Z" fill="#FFFFFF" id="DyzraPFn5mEXLi865BydT" />
    <path d="M76.661,67.57c-2.395,1.245-.422,1.868-.505,2.874-2.201,1.684-1.555.174-3.09-.29-1.507,1.384-1.803,3.447-2.957,4.258-.242-.122-.514-.006-.458-.449-1.035,2.542-4.358,4.204-4.552,7.175-.207.062-.36.061-.477.031.826.126,1.46.533,1.85.907-.597.669-.269,2.056-1.374,1.966.365-.548.049-.818-.017-1.24-.104.391-.164.806-.244,1.201-1.712.168.383-1.614-.406-2.157-.915,1.904-1.016,4.776-2.144,6.424-1.413-.191,1.312-3.905-.774-2.289.519-.781,1.15-1.488,1.769-2.186-2.945.771,1.006-1.411-1.985-.854-2.227,3.154-1.364,4.072-2.983,7.492.45,1.016,1.154.077,1.611,1.071.634,4.15-4.138,3.41-2.988,7.446.873,1.078,2.541,1.485,1.59,4.074-.54-.285-1.022-.587-1.529-.898-.06,3.24,2.3,2.465,1.493,5.549-.739-.584-.712-2.665-.878-2.13-1.081,2.371.883,1.524,1.229,3.373l-1.288.603c.908,3.802,3.188,7.696,5.974,11.049-4.856.439,12.114,11.352,14.53,10.526.645-.268,3.44-1.963,2.651-.366,2.264.287.075-.75,1.085-1.286,1.187-.173,1.686.448.954.938,3.817-1.276,9.135-4.944,12.854-6.323l-.393.707c2.39-.893,1.193-3.784,3.199-4.367l-.039.326c1.461-.907,2.214-2.699,3.312-3.942-.054,1.016-.134,1.993-.347,3.132,1-2.251-.215,2.386,1.579.327-.916,2.762-.564,3.976.669,6.509.855,1.374,2.593.972,3.813,2.038l-.864.882c.891.312,1.796.564,2.688.749.022.646.07,1.311.146,1.992.56.259,1.124.5,1.679.734-.57-.453-.952-1.29-.657-1.518,1.57.752,5.015,2.968,5.604,4.227,2.318.262,4.597.067,6.679-.433-.107.488-1.178.77-2.089,1.021,2.995-1.306,1.096,1.326,3.908-.087-.464-.218.125-.759.149-1.014,2.363.546,5.194-.578,7.203-1.836l-.078.976c4.375-1.742,7.871-5.15,11.229-8.38-1.413.903-2.229-.371-1.345-1.5l1.3.534c.049-1.202-1.344.672-.78-1.315,1.302-1.121,1.908.164,1.485,1.208.389-.64.824-1.223,1.155-1.897.375.156.202.686.484,1.123.143-1.333,3.622-2.317,3.094-4.137l.391.115c2.245-3.15,3.325-6.518,4.531-10.138-1.005-.427-.346-1.81-.912-3.139.752-2.318,4.78-9.343,1.084-10.724,1.027-.127.955-3.468,1.679-1.744-.136-3.699-.722-6.374-2.005-9.926-.323.608-.406,1.225-.801.98-.291-.842.052-2.059.556-2.037l.155.21c-2.465-4.55-.649-13.061-4.871-16.546l.206.176c-.994-1.227-2.087-2.375-3.147-3.511-.919-1.901,1.306.703,1.064-.97-3.482-2.639-4.213-6.77-7.77-9.191-.478-5.56-8.509-7.805-11.208-11.588l-.128.742c-1.377.039-1.046-1.038-1.753-1.607-.141.552.826,1.177.003,1.169-4.48-1.896-9.078-3.638-13.68-5.217-4.655-1.619-9.622-2.739-14.59-3.086-3.669-.179-1.898,3.683-6.428,2.285l1.148-1.409c-6.874,2.103-14.472,2.399-20.574,6.499.26-.438.118-.809.749-1.065-1.238-.395-4.77,1.716-4.644,2.927-1.007.392-.545-.522-1.329-.582-1.581.224-2.64,2.863-3.788,2.435-.196-.067.192-.486.396-.677-.603.869-3.863,2.295-2.488,2.72-2.318.858-3.628,3.083-5.778,3.976-.091,1.615-3.698,2.236-2.934,3.994-1.519-1.531-4.52,2.569-4.8,3.815-.027-.781-1.371.66-1.493-.329-1.267,1.402-2.144,2.919-1.211,3.282-3.667.907-2.628,6.063-6.168,6.431-2.308,5.188-4.058,10.024-5.455,14.772-1.692-.871,1.987-5.099.201-5.705-.702,1.51-2.224,16.732-3.288,10.742-.516,4.611-2.213,8.89-1.336,13.474-.168-.017-.337-.486-.459-.933.03.85-.327,1.974.496,1.888l-.197-.826c1.226-1.239,2.453,3.396,3.121,3.39-2.526-1.158-.306,4.223-3.396,2.203.209.559.672,1.216,1.205,1.012-.031.832-.304,1.155-1.055.398.924,2.992,1.611,1.73,2.17,4.387-.395.09-.669-.409-1.18-.588,1.074,1.199,2.153,2.289,2.549,4.531-.269-.053-.482.299-.687-.352,1.411,3.775,4.271,5.406,5.531,9.339-2.13-.22.215,1.65-.965,2.457.509.592,1.03,1.171,1.572,1.728l.127-1.152c1.032,1.708,2.898,2.531,3.478,4.174-.46-.266-.892-.558-1.342-.842.763.975,1.599,1.888,2.402,2.82l-.788-2.006c1.797,1.119,1.391-1.282,2.595,1.005-.436-.313,1.162,1.508,1.147,2.837l-.007-.002c.996.416,1.978.837,2.678,2.116-.099.597-1.418.899-1.488,1.292,1.536-.127,3.434,3.083,5.246,2.913-.502-.044-1.058.509-1.072.717l1.273-.195c.428.857.44,1.047-.094,1.417,1.922,1.938.615-1.982,2.481.746-.242-.103-.25.092-.745-.138,2.187,2.446,5.232,3.411,7.386,5.471-.117,1.755-2.353-1.181-2.246.433,3.655,2.281,8.404,3.26,12.114,5.309l-.637-.468c1.643-1.551,2.767,2.541,4.77,2.061-.535-.035-1.051.851-.836.684,2.592,1.316,5.809,1.524,10.142,1.625l-.631.439c1.662.781,4.2,1.119,6.077,1.519.604-.486,1.617-.297,1.079-1.146,4.844,3.701,10.354-1.053,15.485,1.117-3.019,1.089,2.48-.135,3.25-.413-.443-.875-.618-.486-1.565-1.092.464-.611,1.561-1.177,2.568-1.304-1.753.839.21,1.47,1.108,1.875-.178-.263.051-.607-.061-.883,2.42,1.308.058-1.875,3.13-1.336l-.061.507c1.041-.462,1.894-1.288,3.082-1.385.729.943-1.036.717-.922,1.592,1.676-.346,2.719-2.764,4.449-2.116-.603.477-1.588.755-2.203,1.233,1.912.772,2.034.407,3.285.266l-.126.006c.973-.097,1.979-.106,2.941-.282l-.801-.077c1.161-3.443,4.041-1.876,5.883-4.676-1.857,2.692-.039,1.113.234,2.315.797.013,1.978-.099,1.82.344.85-1.456,2.443-.228,3.582-2.336.249.308,1.308-.662,1.483.356,1.443-1.127-.688-.4-.772-.91,8.422-4.989,7.401-2.004,12.684-11.965,1.034-.183.498,1.223.293,1.65,1.624-.693,2.507-1.662,3.368-3.057-.001.463.441.447,1.11.425.891-.949-.388-1.599,1.174-2.438.122.513.373,1.271.258,2.046.789-1.4,1.267-3.012,2.048-4.399.801.127.147,1.374.097,2.091.832-1.283,2.491-3.617,1.952-5.068l-.979.667c1.622-.635.594,3.218-1.208,2.098.185-.329.378-.649.524-1.007-2.688-.455-2.727,3.915-4.326,5.106-.158-.601-.328-1.203-.528-1.823-.168.878-.437,1.679-.668,2.54-.657.017-1.524-.449-.907-1.354-1.702.449-.617,1.372-2.213,1.594-.202-.008-.206-.113-.15-.254-.263.461-.518.938-.796,1.393.004-.455-.936-.726-.102-1.163-2.239.55-2.322,3.309-4.208,3.295l.117-.22c-2.508,2.243.291,1.399-1.135,3.998-1.101-.483-2.179-.981-3.234-1.494l.335,1.238c-.35.175-1.043.515-1.173.018-.828,1.435.495.346.157,1.434-2.202-.084-4.346,2.964-5.6,1.387-.2,1.132,1.932-.143.404,1.309-1.419-1.658-1.976,1.272-3.944,1.098.063-1.21,1.743-1.334-.18-1.53-.241,2.185-3.242.856-4.391,1.652.04,1.868-3.535,1.76-4.916,2.698-.925-.433-5.505.489-6.854.241l.019-.252c-.27,1.744-2.748,1.697-4.1,2.167-.049-.88.205-1.262,1.035-1.763l-1.539.201c-.304.513-.759.82-1.751,1.115l.273-1.141c-2.288.464-4.261,1.579-6.769,1.025-.156,1.021,2.264,2.763-.661,3.548-.116-.563-.227-1.49.523-1.73-.244.097-.88.448-1.381.207l1.143-.905c-1.234-.438-.639.763-1.634.654.024-.79-.726-.58-.576-1.204.25-.071.853.346,1.229.045-1.106-.167-2.426-.665-2.836-1.273.476,1.29-2.106,1.483-2.11.597-.05-.302.01-.651-.57-.913-.537.496-1.792-.2-1.942.971-.606-.066-.66-.625-.855-.965-.7.465-5.385-.579-3.701,1.003-.055.015-.116.005-.183.019l.009.002c-3.755.59-7.043-2.033-10.488-2.801l.14-.37c-1.424-.659-7.919-.918-6.664-2.977-1.787-.473-2.125-.336-3.617-1.88,1.726.215-.181-.779,1.673.375-1.681-1.374-1.739-2.077-4.111-2.361,1.175-.444-.591-1.887-1.537-2.22l.764,1.419c-.985-.509-1.729-1.132-2.462-1.783l1.209-.759c-1.999-3.562-7.514-2.463-8.102-6.854-1.439-.072,1.177,2.095-.292,2.145-1.986-2.685-.746-5.949-3.843-6.173-.802-.134-1.649-.282-2.311-1.529-.147.562-.927,1.654-2.592.24-1.569-2.206,1.457-3.558,1.379-1.665.51.401,1.16.923,1.112.003l-.526.089c.071-.619-1.788-2.87-.75-3.099-1.182-.917-.994-.07-.585.956-.841-2.4-2.12-3.204-2.971-5.598-.028.469-.324,1.068-.522.72-1.24-3.534-1.608-.987-2.913-3.188.05-1.614,1.744-.257.184-2.307-.151-1.594,1.038-.776,1.62-.398-1.765-1.69-.931-4.062-1.134-5.242l.712.953c-.412-.567-.608-1.092-.739-1.63-.251.292-.499.59-.729.889-.044-.691-.166-1.239.213-1.329-.783-.513-1.38.945-2.575-.214.249-1.001-1.117-2.68.103-3.206.089,2.877,1.157-.517,1.833,1.749-.229-.408-.38-.952-.304-1.627.124-.121.271.046.369.207.721-2.715-1.63-.952-1.856-3.726.72.293,1.324-.694,1.155-1.111.026,1.055-1.162.582-1.748-.454.61-1.829-.347-2.013-.255-2.992l-.293,1.102c-.694-.407-.606-1.355-.659-2.698.562-.058.253,1.23.546.782-1.075-1.779,1.723-3.289,1.179-5.207.639-.823,1.3.168,1.803-.548-.356-2.37,1.449-2.082,1.427-4.487-1.108.351-.928.562-1.316-1.331-.154,1.328-.399,2.62-.444,3.937-.275-.922-.479-1.853-.658-2.799-.404,1.144-.104,2.591-.426,3.24-.472-1.358-.268-1.196-1.173-.819,1.75-1.257.098-3.54,1.623-4.983l2.208.838c1.958-2.421.829-5.695,2.909-8.154l-.908.867c-.594-.861.893-2.122,1.205-3.327.63.488,1.257-.016,1.934-.199-.377-.618,1.418-2.547.329-3.384,4.092-.887,1.862-4.652,4.08-7.035.101,1.229,1.362.576.616,2.452.614-.734,1.267-1.304.861-1.671.695-.124.997-2.694,2.141-2.859.023-.537-.498-1.222.341-1.945.199.028.274.277.274.277-.277-.273.854-1.589-.45-1.529,3.645-.283,6.082-5.792,9.69-5.689,1.536-1.477,3.573-3.053,5.207-4.084.011.265.193.343-.166.449,2.721-.727.352-2.954,3.441-3.497,1.968.463-1.146,1.324-.055,1.331,1.744,2.075,3.434-2.135,5.608-1.268l-.388.326c2.035.059,3.434-2.529,5.605-2.831,0,0-.052.253.097.38,1.39-1.878,4.582-3.052,6.803-3.733-.601,1.103-1.014.699-.383,1.639,1.059-.296-.61-1.589,1.56-2.186.801.444,2.433.707,2.74,1.824-.676.046-1.342.193-2.011.3,1.193,1.231,2.59-.335,3.693-.161l-.094.632c2.903-.404,3.642-2.075,6.48-1.72l-.329-.496c1.972-1.422,1.5.969,3.456-.041l.382,1.647c1.622-.35,4.829-.906,6.708-.68-1.515.862-4.117.933-5.738,1.463,1.03.09,3.848.563,4.757-.067-.509.048-1.177.302-1.596-.036,1.876-1.029,3.995-1.049,6.138-.366-.94,3.027,5.967,2.686,6.268,5.677,4.327.865,6.625,4.716,9.845,7.587.515-2.883,1.111.978,2.569-.945.915.727,1.186,1.083,1.127,1.272.387,1.221.794,2.379,1.084,3.602-.072,1.075-1.075-.514-1.437-.086,1.324,2.034-.195,1.444.233,3.071.52-.786,1.488-.046,1.995,1.267l-.181-2.241c3.025,2.103-.019,3.493,2.771,5.782l-1.19-.553c1.475,1.52,2.935,5.573,5.381,6.489-.147.404-.623,1.033-1.062.379,1.13,3.77,4.846,7.641,4.268,11.879l-.642-.217c.296.73,1.354,1.181.845,2.234-.251-.022-.626-.239-.623.12.255.37,1.281,1.955.952,3.015l-.716-.834c-.572,3.824,1.707,6.131,1.631,9.725-1.802-.212-2.904,2.789-3.606,3.968l-.224-.122c-1.432,3.862-1.468,7.645-3.559,11.39-3.775,1.475-7.104,6.184-11.07,6.962.675-.024.583,1.277-.008,1.748-.971.112-1.986,2.162-2.395.597l.315-.092c-1.166-1.189-2.56-.387-3.904-.27.008.709.004,1.425-.01,2.132-2.571-2.13-9.46-1.074-9.186-5.366-.974-.307-1.626-1.205-2.511-1.717l.998-.536c-2.149-4.81-2.608-9.191-3.09-14.636.274.209.547.483.819.822-.172-3.214-.987-3.665-1.799-3.345-4.004,2.615.549-7.349-.642-9.484-4.072,5.534-7.825,11.549-10.716,17.884-.023-.342-.086-1.099.611-2.341-.629,2.291-7.305,6.013-5.445,7.946-.937-1.095-2.711,1.879-4.104,3.233l-.253-1.124c-.677,1.952-.651,2.345-2.545,3.387-.54-.026-.66-.736.046-.655-1.722-.155-1.021,1.411-3.159,1.115.227-.241.441-.544.646-.809-1.565.135-1.403.37-2.415,1.302-1.11.467-3.186-.494-3.216-1.672-.429.649-1.626,1.034-2.332.41.026-.4.449-.484.648-.525-1.794-1.56-4.2-.835-5.003-3.132.238-.282.284-.49.272-.686,1.385,1.625,2.871,2.453,2.677,2.461.468-1.057-.518-1.872,1.164-2.38-1.649.133-4.129-.3-4.731-2.008.036-.121.073-.239.171-.374l.192.071c-.14-.346-.374-.591-.683-.782-.12-.536-.177-.872-.363-1.347.686-.663-.462-2.07-.547-2.784-1.051.416-1.21-.801-1.79.552.032-.336.399.867.663,1.019-.033-.007-.072-.015-.114-.024.261.652.593,1.35.949,2.036-.886-.402-1.596-.986-1.356-2.12-.866-.194-1.709-.527-2.138-.74,1.053-1.763,1.545-4.334,2.475-4.779-1.021-2.793-.601-6.357-2.482-8.814-.153-.902.731-.897,1.098-1.15.147.517.038,1.082.304,1.379-.485-1.719.853-4.254-.492-5.661,1.339-1.828.902,1.55,1.625-1.28l.296.526c3.644-3.802,2.059-11.58,8.486-12.753-.464.127-.696.198-.926.064,6.186-3.495,13.523-8.703,20.962-6.329,1.96.582,2.238-.371,3.613-.84l.218,1.262c4.661-3.149,5.738,3.322,9.608,4.259.069-.299.132-.604.19-.914.992.888,3.236,2.919,2.298,3.286.193.022.951-.097.886.569l-.52.357c1.109.854,3.838,3.59,1.37,4.146-.274.1-.528.233-.652.537-.768,1.152,1.258,4.816,2.491,4.828-.012-.578.287-1.508.914-1.611l.426,1.366c2.488.42,4.054.999,4.894-2.635-.354-.785-1.115-1.898-1.579-2.632.237-.359.471-.727.701-1.105l.521,2.388c.538-1.399-.18-2.219-1.094-3.073.391-.354.584-.852.564-1.482-.849-.763-1.775-1.427-2.734-2.001.493-.652,1.889.584,1.367-1.412-1.37-.804-.903,1.892-2.332.197-.011-1.559.756-1.658-.753-2.605.252-.48.694-.377,1.249.072-1.256-.834-2.347-2.824-3.992-2.764-.116-1.704-3.819-2.467-2.963-4.124-.896.114-3.164-.139-4.141-.452,2.916-1.254-4.818-1.961-3.388-3.612-2.93,1.363-6.612-.31-9.631.95.161-.152.487-.462.758-.367-1.541-.131-2.083-.528-3.411-.869-.075,1.53-2.6,2.307-3.705,3.545-2.309-.97.773-2.058-.113-3.351.334,1.187-3.255,2.137-2.271,2.969-1.768-.445-1.404-.016-2.61-.989.398,1.933-1.317.784-2.045,2.452-2.464.057-1.349-1.494-3.341.236-1.341.085.258-1.577.358-1.659ZM63.834,120.354c-.009.006-.018.013-.018.013-.326-.42-.603-.778-.781-1.006.166.207.397.493.799.993ZM67.399,124.144c-.489-.418-1.036-.99-1.64-1.571.151-.396.58-.534.924-.168-.369-.022.283,1.018.716,1.739ZM68.32,112.434c.356.456.252.694.07.867-.123-.237-.318-.482-.52-.856-.045,0-.101-.015-.151-.013.219-.027.427-.043.602.002Z" fill="#FFFFFF" id="zIQxx89pRzsPOs0koWQA" />
    <path d="M66.574,111.967c-.055-.074-.116-.104-.166-.209-.05.148-.088.288-.11.425.14.029.282.058.408.084-.044-.101-.09-.206-.131-.301Z" fill="#FFFFFF" id="qfahGI1euQ9Gqhb0M6uPW" />
    <path d="M86.112,158.199l-.086-.042c.068.058.13.113.164.192-.052-.065-.046-.099-.078-.151Z" fill="#FFFFFF" id="Yj7QiTNEp0NG3Hq5cYeri" />
    <polygon points="106.329 129.873 106.529 129.671 106.013 129.474 106.329 129.873" fill="#FFFFFF" id="uzf6e-8EYOWAM725kwaq" />
    <path d="M110.626,162.12c.062.092.172.181.373.243-.026-.071-.184-.154-.373-.243Z" fill="#FFFFFF" id="wLq8PJ42vKM5DAZzknXqd" />
    <path d="M121.325,159.998l1.608-.033c-.715-.037-1.215-.01-1.608.033Z" fill="#FFFFFF" id="BjdKRlMXYb7h02FcumYLj" />
    <path d="M129.487,157.797c.024-.226-.005-.376-.03-.513h-.018s.048.513.048.513Z" fill="#FFFFFF" id="vGJHppcmN77erYI1jQd" />
    <path d="M27.506,100.738c-.002-.12-.014-.239-.039-.347-.19-.823-.123-.266.039.347Z" fill="#FFFFFF" id="WkM-oWhYowWxkI6xMT8AB" />
    <path d="M44.282,137.141c-.433-.182-.848-.379-1.22-.643.371.612.719,1.041,1.22.643Z" fill="#FFFFFF" id="XJyjTcor40WWzkG4Y9KIc" />
    <path d="M45.212,58.658c.002.008.007.007.011.017.067-.073.126-.138.193-.212l-.204.195Z" fill="#FFFFFF" id="kb3XrU8yOf09R1ddc9JGW" />
    <path d="M41.921,135.042c.265.691.676,1.126,1.141,1.456-.305-.501-.641-1.104-1.141-1.456Z" fill="#FFFFFF" id="C4Epj_EJ5EEqtZxphOSHM" />
    <path d="M159.316,136.522l.286-.305c-.063-.04-.096-.097-.113-.151l-.173.456Z" fill="#FFFFFF" id="X-0EwwcNsKcPYu8j4C7gO" />
    <path d="M159.489,136.066l.171-.45c-.127.17-.23.322-.171.45Z" fill="#FFFFFF" id="wcdqqI3HokDeLdX1HtVHC" />
    <path d="M160.013,134.671l-.353.945c.203-.267.48-.578.353-.945Z" fill="#FFFFFF" id="ij--JXtf7V3kDszEGf7Aw" />
    <path d="M151.143,144.413l.176.393c-.004-.111-.058-.24-.176-.393Z" fill="#FFFFFF" id="BD-ySPHyzW79FGmWMdkyc" />
    <path d="M148.607,146.728c.826-.433,2.25-.675,2.848-1.607l-.136-.315c-.071.895-2.597.999-2.712,1.922Z" fill="#FFFFFF" id="MuG6Xo7cAS_LGx6-Jxisu" />
    <path d="M134.312,150.082l2.519-.992c-.632-.151-1.45-.373-.443-1.036-3.571.456,1.09.515-2.076,2.027Z" fill="#FFFFFF" id="las6G4yMU4hU0_9jD40I-" />
    <path d="M126.541,152.974c1.27-.668-.249-.58-.265-.835-.7.67-.878.841.265.835Z" fill="#FFFFFF" id="fbL4W2zAJKn88TxX5Acj0" />
    <path d="M68.833,151.582l.597-.845c-1.028-.359-.195.349-.597.845Z" fill="#FFFFFF" id="wj5YWbubrsJcilIULuUXU" />
    <path d="M56.074,149.726l.54,1.207.999-.442c-.524-.237-1.029-.504-1.539-.765Z" fill="#FFFFFF" id="OIri5w-jHc439W4YjzDAE" />
    <path d="M55.442,139.741l.446.203c-.533-.296-1.036-.629-1.56-.944l1.114.741Z" fill="#FFFFFF" id="nrwKBscv2nwjD0es3Ardv" />
    <path d="M60.777,57.761l-1.029-.791c-.439.641.33,1.839,1.029.791Z" fill="#FFFFFF" id="GOkXymde3UMdc3yXd8qSf" />
    <path d="M99.593,43.516c.439.661,1.572,1.144,2.351.575-.934-.148-1.856-.703-2.351-.575Z" fill="#FFFFFF" id="hSJV-VWvhXEsGX8t8m08o" />
    <path d="M120.736,126.234c.212-.137.414-.258.613-.4-.372.1-.758.219-1.148.3.171.06.356.062.535.1Z" fill="#FFFFFF" id="FB_sB3naejqswMgn2SxAZ" />
  </g></g></g></svg>