<svg width="138" height="32" viewBox="0 0 138 32" fill="none" xmlns="http://www.w3.org/2000/svg">
<path d="M124.182 28.5687V21.3989L117.628 9.43127H123.322L126.841 16.3315L130.306 9.43127H136L129.473 21.3989V28.5687H124.182Z" fill="black"/>
<path d="M106.464 28.5687V13.6631H100.904V9.43127H117.315V13.6631H111.755V28.5687H106.464Z" fill="black"/>
<path d="M94.2479 28.5687V9.43127H99.5124V28.5687H94.2479Z" fill="black"/>
<path d="M83.1446 29C81.3718 29 79.7871 28.6047 78.3903 27.814C77.0115 27.0234 75.9192 25.8913 75.1134 24.4178C74.3255 22.9263 73.9316 21.1294 73.9316 19.027C73.9316 17.0144 74.3076 15.2624 75.0597 13.7709C75.8118 12.2615 76.8862 11.0934 78.2829 10.2668C79.6796 9.42228 81.336 9 83.252 9C85.8664 9 87.8988 9.63792 89.3493 10.9137C90.8176 12.1896 91.7577 14.0494 92.1696 16.4933L86.717 16.6819C86.5379 15.5858 86.144 14.7412 85.5351 14.1482C84.9263 13.5373 84.1653 13.2318 83.252 13.2318C82.3746 13.2318 81.6404 13.4834 81.0495 13.9865C80.4765 14.4717 80.0467 15.1545 79.7602 16.035C79.4737 16.8976 79.3305 17.8949 79.3305 19.027C79.3305 20.195 79.4827 21.2102 79.7871 22.0728C80.0915 22.9353 80.5302 23.6002 81.1032 24.0674C81.6941 24.5346 82.3925 24.7682 83.1983 24.7682C84.2369 24.7682 85.0427 24.4537 85.6157 23.8248C86.1887 23.1779 86.5558 22.2704 86.717 21.1024L92.1964 21.2911C91.9278 22.9623 91.4085 24.3729 90.6385 25.5229C89.8686 26.655 88.8568 27.5175 87.6034 28.1105C86.3678 28.7035 84.8815 29 83.1446 29Z" fill="black"/>
<path d="M62.1184 29C60.1128 29 58.3848 28.5957 56.9344 27.7871C55.4839 26.9784 54.3737 25.8284 53.6037 24.3369C52.8337 22.8455 52.4487 21.0755 52.4487 19.027C52.4487 16.9784 52.8337 15.2084 53.6037 13.717C54.3737 12.2075 55.4839 11.0485 56.9344 10.2399C58.3848 9.4133 60.1128 9 62.1184 9C64.1418 9 65.8698 9.4133 67.3024 10.2399C68.7528 11.0485 69.863 12.2075 70.633 13.717C71.403 15.2084 71.788 16.9784 71.788 19.027C71.788 21.0755 71.403 22.8455 70.633 24.3369C69.863 25.8284 68.7528 26.9784 67.3024 27.7871C65.8698 28.5957 64.1418 29 62.1184 29ZM62.1184 24.7682C63.0137 24.7682 63.7747 24.5436 64.4015 24.0943C65.0461 23.6451 65.5386 22.9982 65.8788 22.1536C66.219 21.2911 66.3891 20.2489 66.3891 19.027C66.3891 17.805 66.219 16.7628 65.8788 15.9003C65.5386 15.0377 65.0461 14.3819 64.4015 13.9326C63.7747 13.4654 63.0137 13.2318 62.1184 13.2318C61.223 13.2318 60.453 13.4654 59.8084 13.9326C59.1817 14.3819 58.6982 15.0377 58.358 15.9003C58.0177 16.7628 57.8476 17.805 57.8476 19.027C57.8476 20.2489 58.0177 21.2911 58.358 22.1536C58.6982 22.9982 59.1817 23.6451 59.8084 24.0943C60.453 24.5436 61.223 24.7682 62.1184 24.7682Z" fill="black"/>
<path d="M21.1171 28.5687V9.43127H35.2455V13.6631H26.3816V16.8706H34.9231V21.0755H26.3816V24.3369H35.4604V28.5687H21.1171Z" fill="black"/>
<path d="M6.87618 28.5687L0 9.43127H5.37202L9.88452 22.5849L14.397 9.43127H19.769L12.8391 28.5687H6.87618Z" fill="black"/>
<path d="M38.1652 21.4558V9.47619H43.388V21.4558C43.388 22.4896 44.2231 23.3276 45.2533 23.3276H51.9683V28.5687H45.2533C41.3386 28.5687 38.1652 25.3842 38.1652 21.4558Z" fill="black"/>
</svg>
