<svg width="1376" height="280" viewBox="0 0 1376 280" fill="none" xmlns="http://www.w3.org/2000/svg">
<g clip-path="url(#clip0_17_735)">
<path d="M842.512 246.045C824.548 246.045 808.49 242.053 794.337 234.069C780.365 226.085 769.296 214.654 761.131 199.775C753.147 184.714 749.155 166.569 749.155 145.34C749.155 125.017 752.966 107.326 760.587 92.2653C768.208 77.0235 779.095 65.2292 793.248 56.8825C807.401 48.3543 824.185 44.0902 843.6 44.0902C870.092 44.0902 890.687 50.5317 905.384 63.4147C920.263 76.2977 929.789 95.0778 933.963 119.755L878.711 121.66C876.897 110.592 872.905 102.064 866.735 96.0758C860.566 89.9065 852.854 86.8218 843.6 86.8218C834.709 86.8218 827.27 89.3621 821.282 94.4427C815.476 99.3419 811.121 106.237 808.218 115.128C805.314 123.838 803.863 133.908 803.863 145.34C803.863 157.134 805.405 167.386 808.49 176.095C811.574 184.805 816.02 191.519 821.826 196.236C827.814 200.954 834.891 203.313 843.056 203.313C853.58 203.313 861.745 200.138 867.552 193.787C873.358 187.255 877.078 178.091 878.711 166.297L934.235 168.202C931.513 185.077 926.251 199.321 918.449 210.934C910.646 222.365 900.394 231.075 887.693 237.063C875.173 243.051 860.112 246.045 842.512 246.045Z" fill="white"/>
<path d="M651.172 210.934C630.85 210.934 613.34 206.851 598.642 198.686C583.945 190.521 572.695 178.908 564.892 163.848C557.09 148.787 553.189 130.914 553.189 110.229C553.189 89.5435 557.09 71.6707 564.892 56.6103C572.695 41.3684 583.945 29.6648 598.642 21.4996C613.34 13.1529 630.85 8.97949 651.172 8.97949C671.676 8.97949 689.186 13.1529 703.702 21.4996C718.4 29.6648 729.65 41.3684 737.452 56.6103C745.254 71.6707 749.155 89.5435 749.155 110.229C749.155 130.914 745.254 148.787 737.452 163.848C729.65 178.908 718.4 190.521 703.702 198.686C689.186 206.851 671.676 210.934 651.172 210.934ZM651.172 168.202C660.245 168.202 667.956 165.934 674.307 161.398C680.839 156.862 685.829 150.329 689.277 141.801C692.724 133.092 694.448 122.568 694.448 110.229C694.448 97.8903 692.724 87.3661 689.277 78.6565C685.829 69.9469 680.839 63.3239 674.307 58.7877C667.956 54.07 660.245 51.7111 651.172 51.7111C642.1 51.7111 634.297 54.07 627.765 58.7877C621.414 63.3239 616.515 69.9469 613.068 78.6565C609.62 87.3661 607.896 97.8903 607.896 110.229C607.896 122.568 609.62 133.092 613.068 141.801C616.515 150.329 621.414 156.862 627.765 161.398C634.297 165.934 642.1 168.202 651.172 168.202Z" fill="white"/>
<path d="M69.677 241.69L0 48.445H54.4352L100.161 181.267L145.886 48.445H200.321L130.1 241.69H69.677Z" fill="white"/>
<path d="M222.334 228.741L212 35.7725L354.96 28.1163L357.245 70.7868L267.555 75.5901L269.287 107.933L355.715 103.304L357.986 145.703L271.558 150.331L273.319 183.217L365.183 178.298L367.468 220.968L222.334 228.741Z" fill="white"/>
<path d="M397.557 132.375L367 15.3311L418.207 1.96245L448.764 119.006C451.4 129.107 461.726 135.157 471.826 132.52L537.663 115.332L551.032 166.539L485.195 183.727C446.814 193.747 407.577 170.756 397.557 132.375Z" fill="white"/>
<path d="M949.914 260.132L960.206 67.1611L1013.48 70.0022L1003.18 262.973L949.914 260.132Z" fill="white"/>
<path d="M1083.5 242.871L1076.24 92.5329L1019.96 95.2521L1017.9 52.5703L1184.01 44.5441L1186.07 87.2259L1129.8 89.9451L1137.06 240.283L1083.5 242.871Z" fill="white"/>
<path d="M1265.58 214.333L1261.74 142.036L1189 24.8877L1246.62 21.8232L1285.93 89.5082L1317.29 18.0648L1374.91 15.0003L1315.28 139.188L1319.12 211.485L1265.58 214.333Z" fill="white"/>
</g>
<defs>
<clipPath id="clip0_17_735">
<rect width="1376" height="280" fill="white"/>
</clipPath>
</defs>
</svg>
